<svg xmlns="http://www.w3.org/2000/svg" viewBox="0 0 950 620" fill="none">
  <defs>
    <linearGradient id="ocean" x1="0" y1="0" x2="0" y2="1">
      <stop offset="0%" stop-color="#e0f2fe"/>
      <stop offset="100%" stop-color="#f0f9ff"/>
    </linearGradient>
  </defs>
  <rect width="950" height="620" fill="url(#ocean)"/>
  <g stroke="#cbd5e1" stroke-width="0.3" opacity="0.4">
    <line x1="0" y1="103.33333333333333" x2="950" y2="103.33333333333333"/>
    <line x1="0" y1="206.66666666666666" x2="950" y2="206.66666666666666"/>
    <line x1="0" y1="310" x2="950" y2="310" stroke-dasharray="6,3"/>
    <line x1="0" y1="413.3333333333333" x2="950" y2="413.3333333333333"/>
    <line x1="0" y1="516.6666666666666" x2="950" y2="516.6666666666666"/>
    <line x1="158.33333333333334" y1="0" x2="158.33333333333334" y2="620"/>
    <line x1="316.6666666666667" y1="0" x2="316.6666666666667" y2="620"/>
    <line x1="475" y1="0" x2="475" y2="620" stroke-dasharray="6,3"/>
    <line x1="633.3333333333334" y1="0" x2="633.3333333333334" y2="620"/>
    <line x1="791.6666666666666" y1="0" x2="791.6666666666666" y2="620"/>
  </g>
  <g fill="#94a3b8" stroke="#64748b" stroke-width="0.4" opacity="0.55">
    <path d="M317.8,585.7 L317,587.4 L316.2,589 L310.7,588.5 L304.8,588.7 L301.5,587.6 L301.5,587.4 L300.1,586.4 L306,586.6 L311.7,586.9 L313.7,585.5 L315.1,584.3 L317.8,585.7 Z M54.9,583.8 L49.8,584.3 L46.3,583.1 L44.8,581.9 L44.7,581.7 L43,580.7 L43,580.7 L44.6,579.4 L49.5,580 L52.1,581.1 L54.1,582.3 L54.9,583.8 Z M355.8,578.8 L359.1,580.3 L360.2,582.4 L360.5,583.9 L360.6,585.6 L356.6,586.7 L352.3,587.6 L347.3,588.4 L341.8,589.1 L335.5,588.9 L332.1,587.7 L332.5,586.3 L338.2,585.4 L340.4,584.2 L342.1,582.7 L343.3,581.5 L344.9,580.2 L346.6,578.8 L346.6,578.8 L347.9,578.8 L351.9,578.1 L355.8,578.8 Z M155.1,563.2 L158.5,563.7 L161.7,563.1 L160.2,564.3 L157.7,565.2 L154.1,564.9 L151.4,563.7 L151.4,563.7 L152,562.6 L155.1,563.2 Z M143.7,563.1 L147.7,564.5 L146.1,564.3 L142.7,564 L139.1,563 L139.1,563 L141,562.3 L143.7,563.1 Z M213.8,557.8 L216.7,558.2 L219.6,557.8 L221.1,559.8 L219.1,559.5 L215.9,559.7 L212.6,559.5 L209,559.7 L206.4,559.1 L205,557.6 L205,557.6 L206.6,557 L210,557.5 L213.8,557.8 Z M294.4,554.4 L294.7,556 L294.2,557.3 L293.5,558.6 L290.4,559.1 L287.4,559.7 L284,559.7 L285.3,558.3 L282.2,558.8 L279.2,559.3 L277.2,558.3 L277.1,556.8 L279.9,555.5 L279.9,555.5 L281.8,555.1 L284.8,555.2 L285.6,553.5 L285.7,552.2 L285.7,549.4 L287.2,547.8 L289.6,547.2 L291,548.5 L291.6,549.8 L292.8,551.4 L293.6,552.9 L294.4,554.4 Z M320.3,531 L319.2,531.7 L317.2,531.2 L315.1,531.5 L313.2,532.3 L311.3,533.2 L310,534.2 L309.7,535.6 L309.8,536.8 L311.1,538 L309.3,538.8 L306.8,539.1 L305.3,540.2 L303.8,541.3 L302.1,542.8 L301.7,544.1 L302.6,545.5 L304,546.6 L306.2,547.4 L308.2,548.5 L309.3,549.8 L309.9,551.1 L310.7,552.4 L311.9,553.6 L312.7,554.9 L313,558 L313.8,559.3 L314,560.7 L314.8,562 L314.5,563.8 L313,565.3 L311.5,566.4 L308,566.9 L306.8,568.1 L305.2,569.2 L301.2,570.5 L297.7,571.1 L294.4,571.8 L290.8,572.5 L288.7,574 L284.5,574.1 L279.8,574 L275.6,574.2 L271.2,574.2 L272,575.6 L276,576.2 L279,577.1 L280.6,578.4 L277.7,579.4 L273.1,579.1 L269.4,580 L269.2,581.4 L269.1,582.7 L272.2,583.9 L272.8,585.2 L276.1,586.4 L281.7,587 L286.5,587.9 L290.2,589 L295,590.1 L301.6,590.6 L308.1,591.6 L312.6,592.6 L317.5,593.7 L320.1,595.4 L321.4,596.6 L324.6,595.4 L328.9,594.4 L333.5,593.3 L339,592.5 L343.7,591.5 L350.2,591.4 L356.7,591.9 L362,592.7 L363.7,591.2 L367.4,590.2 L374.1,590.2 L379.3,589.4 L384.3,588.7 L389.7,588.2 L395.6,587.6 L399.7,586.7 L397.8,585.5 L396.7,584.3 L396.7,583 L391.5,583.1 L386.1,583.7 L381,583.7 L380.2,582.4 L380.6,579.8 L381.8,579.1 L385.6,578.3 L390,577.5 L393.2,576.5 L396.4,575.4 L398.8,574.1 L402.4,573.5 L406,573 L407.8,572.7 L411.9,572.6 L415.7,572.1 L419,571.5 L422.2,570.7 L425.1,569.8 L428.8,568.8 L431.1,567.6 L433.6,566.6 L434.3,565.3 L431.5,564.4 L432.5,563 L434.2,561.9 L437,561.3 L439.9,560.5 L442.6,559.4 L444.6,558 L445.9,556.4 L447.8,555.5 L451,555.7 L452.3,556.8 L455.4,557 L455.5,555.7 L456.9,554.3 L459.7,554.7 L460.4,555.9 L463.5,556.1 L467,555.5 L470.3,555.1 L473.3,555.3 L474.4,556.8 L477.3,555.6 L480,555 L483,554.5 L485.9,554.1 L488.6,553.2 L491.6,552.7 L493.8,552 L495.4,550.7 L497.4,551.6 L500.1,551.2 L502,552.8 L503.5,554 L506.5,553.3 L507.7,552 L510.4,551 L513.9,551.2 L514.9,552.5 L517.1,551.2 L519.9,550.8 L523,550.7 L525.8,550.7 L528.8,551.2 L531.6,551.4 L532.9,552.5 L534.6,553.5 L537.5,552.9 L540.6,552.8 L543.6,552.8 L546.5,552.7 L549.1,552.2 L551.9,551.8 L554.3,550.9 L556.7,550.3 L559.4,549.9 L561.4,549 L562.9,547.1 L564.4,546 L567.1,546.5 L568.2,547.7 L570.4,548.5 L573.2,548.2 L575,549.5 L577,550.3 L579.7,549.5 L580.6,548 L583,547.4 L585.7,546.3 L588.3,545.8 L591.4,545.1 L593.5,544.4 L595.6,543.6 L597.7,542.8 L600.2,543.3 L602.6,542 L604.3,541.1 L606.8,541.2 L608.9,540.4 L609.4,539.1 L611.7,538.2 L613.8,537.5 L616.5,537 L618.9,536.7 L621.2,536.9 L623.7,537.2 L625.8,538.2 L626.1,539.7 L628.4,540.8 L630,541.8 L633.2,542.2 L634.9,543.1 L637.1,544.1 L639.6,544.3 L641.8,543.6 L644,542.2 L646.5,542.9 L649.1,543.3 L651.6,543.7 L654.2,544 L656.8,544 L659,547.6 L658.9,548.5 L658.6,550 L656,550.9 L654,552.2 L654.3,553.5 L657.3,553.4 L656.9,554.8 L655.6,556.1 L654.3,557.5 L656.3,558.6 L659.4,558.9 L662.4,558.3 L663.9,557 L664.8,555.7 L666.2,554.6 L667.9,553.6 L668.5,552.4 L669.9,550.7 L671.6,550.3 L674.6,550.2 L677.2,549.8 L679.9,549.3 L681.2,547.9 L682,546.6 L683.8,545.3 L686.4,544.5 L688.6,543.8 L690,542.6 L691.5,542 L693.4,541.5 L696.1,541.8 L698.5,541.5 L701,541.1 L703.9,541.3 L705.8,540.4 L707.2,538.1 L708.2,539 L709.4,540.6 L711.6,541.3 L714.2,541.6 L716.7,541.2 L719.4,541.4 L721.9,541.5 L723.5,541.2 L725.7,541.4 L727.8,542.1 L730.1,541.6 L733,541.6 L735.4,541.2 L738.1,541.6 L739.9,540.5 L741.2,539.3 L743.1,538.4 L746.4,535.8 L748.1,536.3 L750.1,537.2 L751.8,538.5 L755.2,540.6 L757.8,540.6 L760.2,540.6 L763.1,540.2 L765.9,539.7 L768.1,538.8 L769.9,537.8 L772.8,537.7 L774.8,536.9 L776.9,537.6 L778.2,538.7 L780.1,539.7 L783,539.6 L784.8,540.5 L787.9,541.4 L791.2,541.7 L794,541.4 L796,540.4 L797.8,539.3 L800.2,539 L802.5,539.5 L805.3,539.8 L807.8,539.3 L810.1,539.3 L812.5,539.6 L814.9,539.9 L817.3,539.3 L820.1,538.8 L822.8,538.7 L825.8,538.7 L828.2,538.3 L830.6,538.1 L831.3,536.4 L831.4,535 L833.1,535.9 L833.6,537.4 L834.4,538.9 L835.5,540 L837.7,540.6 L840.7,540.4 L844.2,540.4 L846.6,540.1 L850,540.1 L852.5,540.1 L856,540.2 L858.9,540.5 L860.8,541.6 L860.3,542.8 L862,543.9 L864.8,544.7 L867.8,545.5 L871.2,546.2 L874.7,546.7 L877.4,547.2 L880.4,547.3 L882.1,546.2 L884.5,547.1 L886.5,548.2 L888.8,549 L892,549.3 L895.1,549.7 L896.4,551.1 L899.4,551.9 L901.4,553.1 L904.3,553.6 L907.4,553.6 L910.2,553.8 L913.4,553.7 L916.5,554 L919.5,554.5 L922.2,555.3 L924.9,555.9 L926.8,557 L926.5,558.3 L925.1,559.5 L923.9,561.1 L923,562.3 L921.7,563.7 L918.3,564.2 L916.7,565.5 L913.3,566.2 L912.1,567.6 L910.3,568.8 L908.4,569.9 L907.3,571.3 L906.6,572.6 L906.4,574.2 L906.4,575.4 L907.9,576.8 L908.5,578.1 L909.7,579.3 L914.6,579.8 L915.7,581.3 L910.9,581.8 L906.9,582.5 L901.9,582.7 L899.7,584.6 L899.2,586.2 L898.1,587.5 L896.7,588.8 L900.2,590 L901.5,591.4 L903.8,592.7 L907,593.8 L910.7,594.9 L914.6,596 L920.7,597 L922,598.7 L929.6,599.5 L930.1,599.7 L932.1,600.8 L939.4,599.9 L945.5,601 L950,601.8 L950,620 L0,620 L0,601.8 L0.2,601.8 L2.5,599.8 L7.2,600.9 L7.5,600.8 L8.3,600.5 L9.2,600.1 L9.9,599.8 L10.3,599.7 L10.7,599.7 L11,599.7 L14.8,601.2 L18.2,599.7 L18.8,599.5 L26.5,598.9 L29,599.7 L30.3,600.2 L34.2,601.3 L41.7,602.2 L47.7,603.3 L57.9,604.1 L65.5,603.1 L76.7,603.8 L83,604.9 L90,603.9 L97.4,602.9 L97.9,601.3 L87.5,601.2 L79,600.4 L76.8,599 L69.7,598.3 L70.2,596.7 L71.2,595.3 L72.1,594 L71.6,592.6 L67.2,591.6 L65.2,590.4 L61.1,589.4 L67.5,589.6 L73.6,589 L77.5,590.2 L82.2,589.1 L86.5,587.9 L88.6,586.7 L87.7,585.3 L84.3,584.4 L80.4,583.3 L75,583.1 L70.2,582.7 L65.1,582.3 L63.4,581.1 L60,580 L57.9,578.8 L57.1,574.8 L58.4,575.2 L60.8,576.3 L65.1,575.9 L69.3,575.4 L71.5,576.9 L75.6,576.6 L79.2,575.9 L82.5,574.9 L85.5,573.8 L89.4,573.4 L89.3,572.1 L88.4,570.9 L89.2,569.6 L92.6,569 L94.2,570.2 L98.2,569.5 L101.2,568.6 L105,568.6 L108.6,568.2 L112.1,567.4 L115,566.7 L118.2,565.9 L120.3,566.1 L122.1,566.4 L126,565.9 L129.5,566.5 L133.1,566.5 L136.6,566 L140.1,566.3 L144.1,566.7 L147.7,566.5 L151.6,566.6 L155.5,566.7 L159.1,566.5 L161.8,565.5 L165,565 L168.3,565.7 L171.5,565.1 L174.3,563.9 L176,565 L176.9,566.2 L178.7,567.3 L181.4,566.3 L184.5,567.6 L188.1,568 L191.2,569 L194.9,568.8 L198.2,568.2 L202.2,568.3 L205.8,568.8 L209.4,569.4 L210.8,567.9 L209.1,566.7 L207.8,565.5 L204.4,565.3 L202.9,564 L202.3,562.7 L201.4,560.1 L203.4,560.6 L206.9,560.8 L210.3,560.6 L213.4,561.1 L216.1,562.2 L217.2,563.4 L220.8,563.6 L224.2,563.1 L227.8,562.4 L231.1,562 L233.8,562.8 L237.3,562.6 L239.5,559.9 L241.7,561.5 L244.7,562.1 L248,561.7 L250.2,563.1 L253.7,563.2 L256.9,563.6 L260,564.4 L262.1,563.1 L263.1,561.9 L265.7,563.2 L269.4,562.9 L272.1,563.6 L273.9,564.8 L277.4,564.4 L280.1,563.7 L282.8,562.8 L286,562.4 L289.7,561.9 L293.1,561.5 L295.7,560.7 L297.2,559.7 L297.8,558.2 L297.5,556.8 L296.7,555.4 L295.8,554.1 L294.9,552.7 L294.3,551.5 L294.1,550.1 L294.4,548.8 L295.6,547.5 L296.7,546.1 L297.1,544.7 L296.5,543.3 L296.2,541.9 L297.5,540.4 L299,539.3 L300.7,538.1 L302.5,537 L304.6,536 L305.6,534.5 L307.1,533.5 L308.7,532.7 L311.3,532.5 L312.9,531.4 L314.8,530.7 L317,530.3 L318.9,529.4 L320.4,528.3 L322.4,527.9 L324,528.8 L323,530 L320.3,531 Z M296.2,495.5 L299.6,497.6 L303.3,498.4 L302.2,500.1 L299.6,500.3 L298.3,499.1 L297.4,500.5 L295.2,501.6 L292.3,501.2 L290.4,500.1 L287.6,499.6 L284.3,497.7 L281.6,495.9 L278,492 L280.1,492.7 L283.9,495 L287.4,496.3 L288.7,494.7 L289.6,492.3 L292,490.9 L293.9,491.3 L293.9,491.3 L294.9,492.9 L296.2,495.5 Z M320.5,486 L322.6,487.6 L321.8,488.8 L318.2,489.8 L317.1,488.6 L314.8,490.1 L313.5,488.6 L316.7,486.5 L318.9,487.4 L320.5,486 Z M660.5,481.2 L656.4,481.4 L656.3,479.6 L656.7,478.2 L656.9,477.5 L658.6,478.6 L661.1,479 L661.2,479.7 L660.5,481.2 Z M858.7,450.5 L861.2,451.7 L862.7,451.2 L864.7,450.6 L866.3,450.8 L866.5,454.9 L865.6,456.1 L865.3,458.8 L864.4,457.9 L862.6,460.3 L862,460.1 L860.4,460 L858.8,457.1 L858.4,454.8 L856.9,451.8 L857,450.2 L858.7,450.5 Z M931.6,450.9 L932.2,452.4 L934.1,451 L934.8,452.4 L934.8,453.9 L933.8,455.5 L932.1,458 L930.8,459.4 L931.7,461.1 L929.7,461.1 L927.4,462.4 L926.7,464.6 L925.2,468.1 L923.2,469.7 L921.8,470.7 L919.4,470.6 L917.7,469.4 L914.8,469.2 L914.4,467.9 L915.8,465.4 L919.1,462 L920.8,461.3 L922.7,460 L925,458.2 L926.6,456.4 L927.8,453.9 L928.8,453 L929.1,451.1 L931,449.5 L931.6,450.9 Z M935.8,434.5 L937.7,438.2 L937.7,435.8 L938.9,436.8 L939.3,439.4 L941.5,440.5 L943.2,440.8 L944.7,439.4 L946.1,439.8 L945.4,442.9 L944.6,444.9 L942.6,444.8 L941.9,445.9 L942.2,447.4 L941.8,448 L940.8,449.9 L939.5,452.2 L937.4,453.6 L937,452.7 L935.9,452.2 L937.4,449.4 L936.5,447.5 L933.7,446.1 L933.8,444.8 L935.7,443.6 L936.1,441 L936,438.8 L934.9,436.4 L935,435.8 L933.7,434.4 L931.7,431.4 L930.6,428.9 L931.5,428.7 L933,430.6 L935,431.5 L935.8,434.5 Z M916,386.3 L915,387.2 L913.6,386.2 L911.7,384.7 L910,382.8 L908.2,380.4 L907.9,379.3 L909,379.3 L910.5,380.5 L911.6,381.6 L912.5,382.6 L914.6,384.7 L916,386.3 Z M945.7,369.7 L946.6,370.7 L946.2,372.5 L944.5,373 L943.1,372.6 L942.8,371.1 L943.9,369.9 L945.1,370.3 L945.7,369.7 Z M948.3,367.9 L946.6,368.6 L946.3,367.3 L947.6,366.6 L948.5,366.4 L950,365.3 L950,367 L948.3,367.9 Z M0.2,366.8 L0,367 L0,365.3 L0.5,365.2 L0.2,366.8 Z M917.9,366.7 L917.1,367.2 L916.2,365.7 L916.3,364.7 L917.9,366.7 Z M916,361.4 L916.4,364.2 L915.7,363.8 L915.1,364 L914.8,363 L914.7,360.4 L916,361.4 Z M607.1,356.7 L607.5,360.8 L608.2,362.4 L607.9,364.1 L607.5,365.1 L606.6,363.1 L606.1,364.1 L606.6,366.7 L606.3,368.1 L605.6,368.9 L605.5,371.8 L604.4,375.9 L603.1,380.6 L601.5,387.1 L600.5,391.9 L599.3,395.9 L597.1,396.7 L594.8,398.2 L593.3,397.3 L591.2,396.1 L590.5,394.3 L590.3,391.2 L589.4,388.5 L589.1,386 L589.6,383.5 L590.8,382.9 L590.8,381.7 L592.1,379.1 L592.3,376.9 L591.7,375.3 L591.2,373.1 L591,370 L591.9,368 L592.3,365.9 L593.6,365.7 L595.1,365 L596.1,364.4 L597.2,364.4 L598.7,362.4 L600.9,360.3 L601.7,358.5 L601.3,357.1 L602.4,357.5 L603.9,355.1 L603.9,353 L604.8,351.5 L605.7,353 L606.4,354.4 L607.1,356.7 Z M853.8,357.4 L854.8,360.1 L856.5,358.8 L857.4,360.3 L858.6,361.6 L858.4,363.1 L858.9,366.1 L859.3,367.8 L860,368.2 L860.7,371.2 L860.4,373 L861.3,375.3 L864.2,377.1 L866,378.7 L867.8,380.2 L867.4,381.1 L869,383.2 L870,387 L871,386.2 L872.1,387.7 L872.8,387.2 L873.2,390.8 L875.1,392.9 L876.3,394.2 L878.4,397 L879.1,399.8 L879.2,401.8 L879,403.9 L880.3,406.8 L880.1,409.9 L879.6,411.5 L878.9,414.5 L879,416.5 L878.5,419 L877.3,422.1 L875.3,423.8 L874.4,426.5 L873.5,428.2 L872.7,431.2 L871.7,432.9 L871,435.4 L870.7,437.8 L870.8,438.9 L869.3,440.1 L866.4,440.2 L863.9,441.6 L862.7,443 L861.1,444.5 L858.9,442.9 L857.3,442.3 L857.7,440.5 L856.3,441.2 L854,443.7 L851.7,442.7 L850.2,442.2 L848.7,442 L846.1,441 L844.4,438.8 L843.9,436.2 L843.3,434.5 L842,433.1 L839.5,432.7 L840.4,431 L839.7,428.4 L838.4,430.8 L836.1,431.5 L837.5,429.5 L837.9,427.6 L838.9,425.9 L838.7,423.3 L836.5,426.3 L834.9,427.4 L833.9,430.2 L831.8,428.8 L831.9,426.9 L830.2,424.4 L828.8,423.1 L829.3,422.3 L825.9,420.3 L824.1,420.2 L821.6,418.5 L816.8,418.8 L813.4,420 L810.4,421.2 L807.9,421 L805.1,422.7 L802.8,423.5 L802.3,425.3 L801.3,426.7 L799.1,426.8 L797.4,427.1 L795.1,426.5 L793.2,426.9 L791.4,427 L789.8,428.9 L789,428.7 L787.7,429.7 L786.5,430.8 L784.5,430.6 L782.8,430.6 L780,428.4 L778.5,427.8 L778.6,425.8 L779.9,425.3 L780.4,424.6 L780.3,423.3 L780.6,420.9 L780.3,418.9 L778.9,415.4 L778.5,413.4 L778.6,411.5 L777.5,409.2 L777.5,408.2 L776.3,406.9 L776,404.2 L774.5,401.4 L774.1,400 L775.2,401.4 L774.4,398.3 L775.7,399.2 L776.4,400.6 L776.4,398.8 L775.1,396.1 L774.8,395 L774.2,394 L774.5,392 L775.1,391.2 L775.4,389.4 L775.1,387.4 L776.2,384.9 L776.4,387.6 L777.5,385.2 L779.7,384 L781,382.6 L783,381.3 L784.2,381 L784.9,381.5 L787,380.2 L788.6,379.8 L789,379 L789.7,378.7 L791.2,378.8 L793.9,377.8 L795.4,376.3 L796,374.4 L797.6,372.7 L797.7,371.3 L797.8,369.4 L799.6,366.5 L800.7,369.5 L801.9,368.8 L800.9,367.2 L801.7,365.5 L802.9,366.2 L803.2,363.6 L804.7,361.9 L805.3,360.6 L806.6,360 L806.7,359 L807.8,359.4 L807.9,358.6 L809,358.1 L810.3,357.6 L812.3,359.2 L813.7,361.2 L815.4,361.2 L817.1,361.6 L816.5,359.7 L817.8,356.9 L819,356 L818.5,355.1 L819.7,353.2 L821.3,352 L822.6,352.4 L824.9,351.7 L824.8,350 L822.9,348.8 L824.3,348.3 L826,349.2 L827.4,350.6 L829.6,351.5 L830.4,351.1 L832,352.2 L833.6,351.2 L834.6,351.5 L835.2,350.8 L836.4,352.5 L835.7,354.4 L834.7,355.8 L833.8,355.9 L834.1,357.3 L833.3,359 L832.4,360.7 L832.6,361.7 L834.7,363.6 L836.7,364.7 L838.1,365.9 L840,367.9 L840.7,367.9 L842.1,368.8 L842.5,369.8 L845,371 L846.8,369.8 L847.3,368 L847.8,366.5 L848.1,364.6 L848.9,361.8 L848.6,360.2 L848.8,359.2 L848.5,357.2 L848.8,354.6 L849.3,353.9 L848.9,352.7 L849.5,350.9 L850,349 L850.1,348 L851.1,346.7 L851.8,348.4 L852,350.6 L852.7,351 L852.8,352.5 L853.7,354.2 L853.9,356.2 L853.8,357.4 Z M902.8,346.1 L903.6,347.3 L901.7,347.3 L900.7,345.1 L902.3,346 L902.8,346.1 Z M793.6,345.3 L792.4,345.3 L788.9,342.9 L791.4,342.2 L792.8,343.3 L793.7,344.3 L793.6,345.3 Z M899.5,344 L898.4,344.1 L896.8,343.7 L896.3,343.2 L896.4,341.8 L898.2,342.4 L899,343.1 L899.5,344 Z M901.7,343.1 L901.3,343.7 L899.3,340.7 L898.8,338.7 L899.7,338.7 L900.6,341.4 L901.7,343.1 Z M803.4,344.9 L801.1,345.7 L800.8,345.3 L801,344.1 L802.2,342 L804.8,340.6 L805.1,339.8 L807.4,339 L809.2,338.9 L810,338.5 L811,338.9 L810.1,339.9 L807.3,341.4 L805.1,342.4 L803.4,344.9 Z M786.1,337.9 L787.1,338.8 L788.7,338.5 L789.4,340 L786.3,340.7 L784.5,341.1 L783.1,341.1 L784,339.1 L785.4,339.1 L786.1,337.9 Z M799.3,337.9 L798.9,339.8 L795,340.8 L791.5,340.3 L791.5,339.1 L793.6,338.4 L795.2,339.4 L797,339.1 L799.3,337.9 Z M896.9,338.7 L897,339.4 L894.9,337.9 L893.5,336.7 L892.5,335.6 L892.9,335.2 L894.1,336 L896.3,337.6 L896.9,338.7 Z M890.7,335.3 L890.2,335.5 L889,334.7 L888,333.3 L888.1,332.7 L889.7,334.2 L890.7,335.3 Z M761.6,333.3 L766.7,333.7 L767.3,332.3 L772.2,333.9 L773.1,336.2 L777.1,336.8 L780.3,338.8 L777.3,340.1 L774.4,338.8 L772,338.9 L769.3,338.6 L766.8,338 L763.8,336.7 L761.8,336.3 L760.7,336.8 L755.9,335.3 L755.5,333.9 L753,333.6 L754.9,330.3 L758.1,330.5 L760.2,331.9 L761.3,332.1 L761.6,333.3 Z M830.5,331.4 L829.2,333.8 L828.9,331.2 L829.4,329.9 L829.9,328.8 L830.5,329.8 L830.5,331.4 Z M886.4,333.5 L885.6,333.8 L884.5,332.5 L883.3,330.3 L882.7,327.7 L883.1,327.4 L883.4,328.4 L884.2,329.2 L885.5,331.4 L886.7,332.5 L886.4,333.5 Z M876.1,328.9 L874.7,329.2 L874.3,330.1 L872.8,331 L871.5,331.8 L870.1,331.8 L867.9,330.8 L866.4,329.8 L866.6,328.7 L869,329.2 L870.4,329 L870.8,327.3 L871.2,327.2 L871.5,329.1 L873,328.8 L873.7,327.6 L875.2,326.4 L874.9,324.4 L876.5,324.3 L877,324.9 L877,326.8 L876.1,328.9 Z M810.8,321.9 L809.8,323.1 L808,322.4 L807.5,320.9 L810.1,320.8 L810.8,321.9 Z M819.3,320.7 L820.3,323.3 L818,321.9 L815.8,321.6 L814.3,321.8 L812.5,321.7 L813.1,319.8 L816.4,319.7 L819.3,320.7 Z M879.1,325.5 L878.3,326.4 L877.8,324.4 L877.2,323.1 L876,321.9 L874.5,320.5 L872.6,319.4 L873.3,318.6 L874.7,319.6 L875.6,320.3 L876.7,321.2 L877.8,322.6 L878.8,323.7 L879.1,325.5 Z M829,314 L829.7,319.5 L832.5,321.6 L834.7,317.9 L837.7,315.9 L840,315.9 L842.3,317.1 L844.3,318.3 L847.1,319 L851.7,321.3 L856.5,323.3 L858.4,325.1 L859.8,326.8 L860.2,328.8 L864.6,331 L865.3,332.8 L862.8,333.2 L863.4,335.4 L865.8,337.7 L867.5,341.4 L869,341.2 L868.9,342.8 L870.9,343.4 L870.1,344 L872.9,345.5 L872.7,346.5 L870.9,346.7 L870.3,345.8 L868,345.4 L865.3,344.9 L863.3,342.7 L861.8,340.8 L860.4,337.8 L857,336.3 L854.7,337.3 L853.1,338.4 L853.5,340.9 L851.4,342.1 L849.9,341.5 L847.2,341.4 L844.8,338.6 L842.1,337.9 L841.5,338.9 L838.1,339 L839.3,336.2 L840.9,335.2 L840.2,331.5 L839,328.6 L833.9,325.7 L831.7,325.4 L827.7,322.2 L826.9,323.9 L825.9,324.2 L825.3,322.9 L825.3,321.4 L823.3,319.7 L826.1,318.5 L828,318.5 L827.8,317.6 L823.9,317.6 L822.9,315.6 L820.5,314.9 L819.4,313.2 L823,312.4 L824.3,311.3 L828.6,312.7 L829,314 Z M805.5,305.1 L803.4,308.5 L801.4,309.2 L798.9,308.5 L794.5,308.7 L792.1,309.2 L791.8,311.8 L794.1,314.9 L795.6,313.3 L800.5,312.1 L800.3,313.7 L799.1,313.2 L798,315.2 L795.6,316.6 L798.1,321 L797.7,322.2 L800,326.1 L800,328.4 L798.6,329.4 L797.6,328.2 L798.8,325.4 L796.3,326.7 L795.6,325.8 L795.9,324.4 L794,322.4 L794.2,319.1 L792.5,320.1 L792.7,324.1 L792.8,329 L791.1,329.5 L790,328.5 L790.8,325.4 L790.3,322 L789.2,322 L788.4,319.7 L789.5,317.4 L789.9,314.7 L791.2,309.5 L791.8,308 L794,305.5 L796.1,306.5 L799.4,307 L802.4,306.8 L805,304.3 L805.5,305.1 Z M814.6,306.1 L814.5,309.1 L813.1,308.8 L812.7,310.9 L813.8,312.7 L813,313.1 L812,310.9 L811.2,306.5 L811.7,303.8 L812.6,302.5 L812.8,304.4 L814.3,304.7 L814.6,306.1 Z M754.2,330.2 L751.3,330.2 L749.1,327.4 L745.7,324.5 L744.6,322.4 L742.6,319.6 L741.3,317.1 L739.3,312.2 L736.9,309.4 L736.2,306.4 L735.2,303.7 L732.8,301.6 L731.4,298.6 L729.5,296.7 L726.7,292.9 L726.5,291.1 L728.2,291.3 L732.3,291.9 L734.6,295.3 L736.6,297.6 L738.1,299.1 L740.6,302.8 L743.3,302.8 L745.5,305.2 L747,308.1 L749,309.6 L748,312.5 L749.5,313.6 L750.4,313.7 L750.9,316.1 L751.8,318.1 L753.7,318.4 L755,320.5 L754.3,324.8 L754.2,330.2 Z M786.1,303.7 L789,306.9 L785.9,307.3 L785,309.6 L785.1,312.8 L782.6,315.1 L782.5,318.6 L781.5,323.8 L781.1,322.6 L778.1,324.1 L777.1,322 L775.2,321.8 L773.9,320.7 L770.7,322 L769.8,320.3 L768,320.5 L765.9,320.1 L765.5,315.5 L764.1,314.5 L762.9,311.6 L762.5,308.6 L762.8,305.4 L764.4,303.1 L766.3,304.3 L768.4,303.6 L768.9,300.7 L770,300.1 L773.2,299.3 L775.1,296.6 L776.4,294.4 L777.4,293.1 L779.7,291.2 L781.7,288.8 L783,286.1 L784.1,286.1 L785.4,287.9 L785.6,289.4 L787.3,290.3 L789.5,291.4 L789.3,292.7 L787.5,292.9 L788,294.6 L786.1,295.7 L784.6,298.9 L786.5,302.1 L786.1,303.7 Z M808.5,281 L808.8,283.3 L808.9,285.2 L808,288.4 L807.1,284.9 L805.8,286.6 L806.7,289.2 L805.9,290.8 L802.8,288.8 L802.1,286.3 L802.9,284.6 L801.2,283 L800.4,284.4 L799.1,284.3 L797.2,286.2 L796.7,285.2 L797.8,282.3 L799.4,281.4 L800.9,280.1 L801.8,281.6 L803.8,280.7 L804.2,279.1 L806.1,279 L805.9,276.4 L808.1,278 L808.3,279.7 L808.5,281 Z M689.3,288.7 L687,289.4 L685.8,286.7 L685.3,281.8 L686.5,276.2 L688.3,278.1 L689.6,280.5 L690.8,284.1 L690.4,287.7 L689.3,288.7 Z M314.2,275.2 L312,275.6 L311.5,275.2 L312.3,274.3 L312.2,272.9 L313.8,272.5 L314.3,272.6 L314.2,275.2 Z M802.2,274.6 L801.2,275.7 L800.4,277.9 L799.6,278.9 L797.9,276.5 L798.5,275.6 L799.2,274.7 L799.4,272.5 L800.9,272.3 L800.5,274.6 L802.4,271.3 L802.2,274.6 Z M787.7,277.9 L784.2,281.2 L785.5,278.8 L787.4,276.6 L789,274.3 L790.4,270.8 L790.8,273.6 L789.1,275.5 L787.7,277.9 Z M796.6,269 L798.2,270.1 L799.9,270.1 L799.8,271.5 L798.6,273 L797,274 L796.9,272.4 L797,270.7 L796.6,269 Z M806.2,268.1 L806.9,272 L804.9,271 L804.9,272.2 L805.6,274.3 L804.3,275.1 L804.2,272.7 L803.4,272.5 L803,270.4 L804.6,270.7 L804.5,269.4 L802.9,266.7 L805.5,266.8 L806.2,268.1 Z M795.7,265 L795,268 L793.9,266.2 L792.5,263.6 L794.8,263.7 L795.7,265 Z M795.2,246.3 L796.8,247.2 L797.6,246.4 L797.8,247.2 L797.4,248.7 L798.3,251.1 L797.6,254 L796.1,255.1 L795.6,257.9 L796.2,260.6 L797.6,261 L798.8,260.6 L802.1,262.5 L801.8,264.4 L802.7,265.2 L802.4,266.8 L800.4,265.1 L799.4,263.3 L798.7,264.6 L797,262.5 L794.6,263 L793.3,262.3 L793.5,260.8 L794.3,260 L793.5,259.2 L793.2,260.4 L791.9,258.4 L791.5,256.9 L791.4,253.6 L792.4,254.8 L792.7,249.4 L793.6,246.3 L795.2,246.3 Z M301.9,247.2 L301.2,248.1 L299.3,248.1 L297.7,248.2 L297.6,246.7 L297.9,246.2 L300.1,246.2 L301.4,246.5 L301.9,247.2 Z M272.1,248.5 L271.3,249 L269.8,248.5 L268.3,247.2 L268.6,246.4 L269.7,246.2 L270.3,246.3 L272.1,246.6 L273.5,247.4 L273.9,248.4 L272.1,248.5 Z M283.5,241.6 L285.8,242.1 L286.1,241.5 L288.1,241.5 L289.7,242.4 L290.4,242.3 L290.9,243.5 L292.3,243.5 L292.2,244.5 L293.4,244.6 L294.7,245.9 L293.7,247.3 L292.5,246.5 L291.3,246.7 L290.4,246.5 L289.9,247.2 L288.9,247.4 L288.5,246.5 L287.6,247 L286.6,249.4 L285.9,248.8 L285.8,247.8 L284,247.3 L282.8,247.5 L281.2,247.2 L279.9,247.9 L278.5,246.8 L278.7,245.7 L281.2,246.2 L283.2,246.5 L284.1,245.7 L282.9,244.2 L282.9,242.9 L281.3,242.4 L281.9,241.4 L283.5,241.6 Z M766.2,245.7 L763.9,247.3 L761.7,246.3 L761.7,243.3 L763,241.7 L765.8,240.8 L767.4,240.8 L767.9,242.2 L766.8,243.7 L766.2,245.7 Z M64.5,244.3 L64.2,244.8 L63.5,244.4 L63.6,243.4 L63.1,242.1 L63.3,241.8 L63.7,241.2 L63.5,240.5 L63.7,240.2 L63.9,240.3 L64.9,240.8 L65.4,241.1 L65.8,241.6 L66.5,242.8 L66.4,243 L65.4,243.7 L64.5,244.3 Z M63.1,238.9 L62.2,239.1 L61.8,238.4 L61.5,238.1 L61.5,237.9 L61.7,237.6 L62.7,238 L63.3,238.5 L63.1,238.9 Z M61.3,237.1 L61.3,237.4 L59.8,237.3 L60,236.9 L61.3,237.1 Z M59,236.6 L58.8,236.8 L58.6,236.7 L57.7,236.6 L57.4,235.8 L57.3,235.7 L58,235.2 L58.2,235.4 L59,236.6 Z M54.5,234.3 L54.2,234.6 L53.3,234 L53.4,233.7 L53.8,233.4 L54.5,233.5 L54.5,234.3 Z M264.7,231.6 L265.8,232.8 L268.2,232.5 L269.2,233.3 L271.4,235.4 L273.1,237 L273.9,236.9 L275.5,237.6 L275.3,238.6 L277.3,238.7 L279.3,240.1 L278.9,240.9 L277.2,241.4 L275.4,241.5 L273.6,241.3 L269.8,241.6 L271.6,239.7 L270.5,238.8 L268.8,238.6 L267.9,237.6 L267.3,235.6 L265.8,235.7 L263.3,234.8 L262.5,234.1 L259.1,233.6 L258.2,232.9 L259.2,232 L256.6,231.9 L254.7,233.6 L253.6,233.7 L253.2,234.5 L251.9,234.9 L250.8,234.6 L252.2,233.5 L252.7,232.3 L253.9,231.5 L255.3,230.8 L257.3,230.5 L257.9,230.1 L260.2,230.4 L262.3,230.4 L264.7,231.6 Z M270.4,228.2 L269.7,228.3 L269.1,226.3 L268.1,225.4 L268.7,223.2 L269.5,223.3 L270.4,226.2 L270.4,228.2 Z M794.8,231.5 L793.6,234.3 L792.2,231.4 L791.9,228.9 L793.5,225.5 L795.6,222.9 L796.8,223.9 L796.4,226 L794.8,231.5 Z M269.6,218.4 L266.8,219 L266.6,217.7 L267.8,217.4 L269.6,217.6 L269.6,218.4 Z M271.8,218.4 L271.4,220.9 L270.9,220.4 L270.9,218.6 L269.7,217.3 L269.7,216.9 L271.8,218.4 Z M830.3,192.4 L830.6,193.6 L829.1,195.6 L828.1,194.5 L826.7,195.3 L826,197.4 L824.3,196.4 L824.3,194.7 L825.8,192.7 L827.3,193.1 L828.4,191.6 L830.3,192.4 Z M566.2,187.1 L564.5,188.6 L564.7,189.2 L564.7,189.5 L562,190.9 L560.7,190.5 L560.1,189.1 L561.4,189 L561.6,188.9 L561.9,188.1 L563.8,188.2 L566.2,187.1 Z M537.5,187 L539,188.2 L541,188 L543,188.2 L542.9,188.8 L544.4,188.4 L544,189.4 L540.2,189.7 L540.3,189.2 L537.1,188.5 L537.5,187 Z M516,178.3 L515,181 L515.4,182.1 L514.8,183.9 L512.8,182.6 L511.5,182.2 L507.8,180.4 L508.2,178.7 L511.3,179 L514,178.6 L516,178.3 Z M499.3,168.1 L500.9,170.5 L500.5,175.1 L499.3,174.8 L498.2,176 L497.2,175.1 L497.1,170.9 L496.5,168.9 L498,169.1 L499.3,168.1 Z M847,182.1 L846,184.8 L846.5,186.5 L845.1,189 L841.7,190.6 L837.1,190.8 L833.3,194.7 L831.6,193.4 L831.5,190.8 L826.9,191.6 L823.7,193.2 L820.7,193.3 L823.3,195.8 L821.6,201.7 L819.9,203.1 L818.6,201.8 L819.2,198.7 L817.6,197.7 L816.5,195.3 L819,194.3 L820.4,192.1 L823,190.3 L825,188 L830.2,186.9 L833,187.6 L835.8,181.5 L837.6,183.2 L841.4,179.7 L842.9,178.4 L844.6,174.2 L844.1,170.3 L845.3,168.1 L848.1,167.5 L849.5,172.3 L849.4,175 L847,178.5 L847,182.1 Z M500.2,164.8 L499.4,167.5 L498.2,166.8 L497.5,164.4 L498.1,163.2 L499.8,161.9 L500.2,164.8 Z M854.8,157.8 L856.6,158.6 L858.5,157.1 L859.1,161 L855.2,161.9 L852.8,165.3 L848.7,163 L847.3,166.8 L844.3,166.8 L844,163.4 L845.3,160.7 L848.1,160.5 L848.9,155.8 L849.6,153.1 L852.7,156.7 L854.8,157.8 Z M307,149.7 L308.9,150.1 L311.4,150 L310.1,151.4 L309.1,151.7 L305.7,150.2 L305.1,149 L306.1,148 L307,149.7 Z M311.9,140.9 L310.6,140.9 L307.2,139.8 L304.7,138.2 L305.7,137.9 L309.1,138.8 L311.8,140.2 L311.9,140.9 Z M149.1,142.9 L147.7,143.4 L143.4,141.8 L142.6,140.6 L140.3,139.4 L139.8,138.4 L137.1,137.8 L136,135.9 L136.3,135.1 L139,135.9 L140.7,136.4 L143.1,136.8 L144,137.9 L145.3,139.6 L148,141 L149.1,142.9 Z M326.9,135.4 L325.1,138.4 L326.8,137.3 L328.6,138 L327.7,139.2 L330,140.1 L331.2,139.3 L333.9,140.4 L333.1,142.9 L334.9,142.3 L335.2,144.1 L336.1,146.3 L335,149.3 L333.8,149.4 L332,148.8 L332.6,146 L331.9,145.5 L328.8,148.5 L327.2,148.4 L329.1,146.8 L326.6,145.9 L323.7,146.1 L318.6,146 L318.2,145 L319.8,143.8 L318.7,142.9 L320.9,140.8 L323.6,135.3 L325.3,133.3 L327.6,132.2 L328.8,132.3 L328.3,133.2 L326.9,135.4 Z M124.8,123.9 L124.8,123.9 L124.8,123.9 L124.8,123.9 L127.3,123.6 L126.5,127.5 L128.8,130.3 L127.8,130.3 L126.2,128.7 L125.2,127.1 L123.9,126 L123.4,124.5 L123.6,123.4 L124.8,123.9 Z M854.1,135.2 L856.7,141.3 L852.8,140.2 L851.2,145.1 L853.8,148.7 L853.7,151.1 L851.7,149 L850,151.7 L849.5,148.8 L849.8,145.4 L849.5,141.7 L850.1,139.1 L850.2,134.5 L848.7,131.1 L848.9,126.4 L851.3,124.8 L850.3,123.2 L851.5,122.7 L852.1,125 L853,128.3 L853,131.7 L854.1,135.2 Z M457.1,130 L452.4,132 L448.7,131.5 L450.8,127.9 L449.4,124.4 L453,121.7 L455,120.1 L457.2,120 L460.1,122.1 L458.6,124.5 L459.1,126.9 L457.1,130 Z M508.5,118.5 L506.9,121.2 L504.1,119.3 L503.8,117.9 L507.6,116.7 L508.5,118.5 Z M71.2,113.3 L68.6,114.6 L67.2,113.7 L66.8,112.1 L69.2,110.9 L70.6,110.3 L72.4,110.6 L73.5,111.6 L71.2,113.3 Z M467.1,108 L464.2,111.8 L466.9,111.3 L469.8,111.3 L469.1,114.1 L466.8,117.2 L469.5,117.4 L472.1,121.8 L473.9,122.4 L475.5,126.3 L476.2,127.7 L479.4,128.3 L479.1,130.5 L477.8,131.6 L478.8,133.3 L476.5,135.1 L472.9,135.1 L468.4,136.1 L467.2,135.4 L465.5,137 L463,136.6 L461.2,137.9 L459.8,137.2 L463.6,133.6 L466,132.9 L461.8,132.3 L461.1,130.9 L463.9,129.9 L462.4,128 L462.9,125.7 L466.8,126.1 L467.2,124.1 L465.4,121.9 L462.2,121.3 L461.6,120.3 L462.5,118.8 L461.7,117.9 L460.3,119.5 L460.1,116.2 L458.8,114.4 L459.7,110.8 L461.8,108.1 L463.9,108.3 L467.1,108 Z M38.1,103.6 L36.4,104.2 L34.7,103.5 L33.1,102.6 L35.7,102 L37.8,102.3 L38.1,103.6 Z M265.8,95.9 L264.8,97.7 L263.6,97.4 L262.9,96.4 L263.1,96.1 L264.1,95.1 L265.2,95.2 L265.8,95.9 Z M258.9,94 L255.8,95.9 L253.9,95.8 L253.4,94.9 L255.3,93.3 L258.9,93.3 L258.9,94 Z M21.8,90.3 L23.4,91 L25.1,90.6 L27.2,91.5 L29.8,92 L29.6,92.4 L27.6,93.1 L25.6,92.3 L24.6,91.7 L22.3,91.9 L21.7,91.6 L21.8,90.3 Z M250.3,83.8 L250.8,85.4 L252.1,84.8 L253.6,85.7 L256.5,86.9 L259.6,88 L259.8,89.6 L261.7,89.4 L263.6,90.5 L261.3,91.6 L257.2,90.8 L255.7,89.2 L253.1,91 L249.3,92.8 L248.4,90.8 L244.8,91.1 L247.1,89.4 L247.5,86.7 L248.4,83.6 L250.3,83.8 Z M436.7,81.1 L436.1,83.3 L439.1,85.7 L435.7,88.3 L428,90.7 L425.8,91.3 L422.3,90.8 L414.9,89.7 L417.5,88.2 L411.8,86.5 L416.5,85.8 L416.3,84.8 L410.8,84 L412.6,81.8 L416.6,81.3 L420.7,83.6 L424.7,81.7 L428,82.7 L432.3,80.9 L436.7,81.1 Z M274.8,78.7 L271.8,78.9 L271.2,77.2 L272.3,75.3 L274.7,74.8 L276.8,75.7 L276.8,77.2 L276.5,77.7 L274.8,78.7 Z M13.2,80.7 L14.9,81.5 L14.3,79 L21.5,79.5 L26.7,82.7 L24,84.2 L19.7,84.6 L19.6,88 L18.6,88.7 L16.1,88.6 L14.1,87.4 L10.6,86.4 L10,84.9 L7.3,84.3 L4.3,84.8 L2.9,83.6 L3.5,82.3 L0.3,83.1 L1.5,84.7 L0,86.2 L0,72.5 L6.5,75.1 L13.4,78.5 L13.2,80.7 Z M222.6,72 L221,73.2 L217.4,72.1 L215.2,72.5 L211.6,71 L214,69.9 L215.8,68.4 L218.6,69.4 L220.2,70 L221,70.6 L222.6,72 Z M950,66 L947.1,66.2 L946.6,65.1 L950,63.7 L950,66 Z M3.4,65.8 L0,66 L0,63.7 L0.3,63.5 L2.6,63.5 L6.4,64.5 L6.2,65 L3.4,65.8 Z M236.1,70.6 L236,74.1 L239.6,71.4 L242.7,73.7 L241.9,76.2 L244.5,78.5 L247.2,76 L249.2,73.1 L249.3,69.3 L253.1,69.6 L257,70.1 L260.5,71.8 L260.7,73.5 L258.7,75.3 L260.6,77.2 L260.2,78.8 L255.1,81.2 L251.4,81.8 L248.7,80.7 L247.9,82.5 L245.3,85.4 L244.6,86.9 L241.5,89.2 L237.7,89.4 L235.6,90.9 L235.5,93.1 L232.4,93.6 L229.2,96.4 L226.3,100.2 L225.3,103 L225.1,107 L229,107.5 L230.2,110.8 L231.4,113.4 L235.1,112.7 L240,114.2 L242.7,115.5 L244.6,117.1 L247.9,118.1 L250.7,119.5 L255,119.7 L257.9,120 L257.5,123 L258.3,126.5 L260.2,130.3 L264.1,133.6 L266.2,132.5 L267.6,129 L266.2,123.5 L264.3,121.7 L268.6,120.1 L271.6,117.7 L273,115.3 L272.8,113 L271,110 L267.8,107.5 L270.9,103.8 L269.8,100.7 L268.9,95.3 L270.7,94.5 L275.2,95.5 L278,95.8 L280.1,94.9 L282.6,96.1 L285.9,98.1 L286.7,99.4 L291.4,99.7 L291.3,102.6 L292.2,106.9 L294.6,107.5 L296.5,109.5 L300.3,107.6 L302.8,103.8 L304.6,102.2 L306.6,105.3 L310.1,109.6 L313,113.8 L311.9,115.9 L315.4,117.9 L317.8,119.9 L322,120.7 L323.7,121.8 L324.7,124.8 L326.8,125.2 L327.9,126.5 L328.1,130.4 L326.1,131.7 L324.2,132.9 L319.9,134.1 L316.6,136.9 L312.1,137.5 L306.5,136.8 L302.5,136.8 L299.8,137 L297.6,139.5 L294.2,141 L290.4,145.5 L287.4,148.7 L289.6,148.2 L293.8,143.6 L299.4,140.8 L303.3,140.4 L305.7,142.1 L303.2,144.4 L304,148.1 L304.9,150.7 L308.3,152.5 L312.7,152 L315.3,148.1 L315.5,150.6 L317.2,151.8 L313.9,154.1 L308.1,156.1 L305.5,157.5 L302.5,160 L300.5,159.8 L300.4,156.8 L305,154 L300.8,154.1 L297.8,154.5 L298.3,155.7 L295.5,157.3 L292.8,158.5 L290,159.5 L288.5,161.8 L288.1,162.4 L288.1,164.2 L289,166 L290.1,166.1 L289.8,164.8 L290.6,165.6 L290.4,166.6 L288.6,167.1 L287.3,167.1 L285.4,167.7 L284.2,167.8 L282.7,168 L280.5,169 L284.4,168.4 L285.1,169 L281.5,170.1 L279.8,170.1 L279.8,169.6 L279,170.6 L279.8,170.7 L279.3,173.2 L277.3,175.9 L277.1,175 L276.6,174.8 L275.7,173.9 L276.2,175.8 L276.9,176.4 L276.9,177.7 L276.1,179.1 L274.6,181.8 L274.4,181.7 L275.2,179.3 L273.8,178 L273.5,175.1 L273,176.6 L273.6,178.8 L271.9,178.3 L273.6,179.4 L273.8,182.7 L274.5,182.9 L274.8,184.1 L275.2,187.5 L273.5,190.1 L270.8,191.1 L269,193.1 L267.7,193.4 L266.4,194.6 L266,195.8 L263.1,198 L261.6,199.7 L260.4,201.7 L260,204.2 L260.4,206.5 L261.3,209.5 L262.5,211.9 L262.5,213.4 L263.7,217.4 L263.7,219.7 L263.5,221.1 L262.9,223.2 L262.1,223.6 L260.8,223.2 L260.4,221.7 L259.4,220.9 L258,217.9 L256.8,215.3 L256.4,213.9 L256.9,211.7 L256.2,209.8 L254.1,206.9 L253.1,206.4 L250.4,207.9 L249.9,207.7 L248.7,206.1 L247,205.3 L244,205.7 L241.7,205.3 L239.7,205.6 L238.5,206.1 L239,207 L239,208.4 L239.6,209.1 L239.1,209.6 L238.1,209.1 L237.1,209.7 L235.2,209.6 L233.2,207.8 L230.9,208.2 L229,207.4 L227.3,207.7 L225.1,208.5 L222.7,211 L220.1,212.5 L218.7,214.1 L218.1,215.7 L218,218.1 L218.2,219.7 L218.7,220.9 L218.7,220.9 L218.7,220.9 L217.6,223.9 L217.2,226.4 L217,231 L216.7,232.7 L217.2,234.6 L218,236.3 L218.5,238.9 L220.3,241.5 L220.9,243.5 L221.9,245.1 L224.7,246.1 L225.8,247.5 L228.1,246.5 L230.1,246.2 L232.1,245.6 L233.8,245 L235.5,243.6 L236.1,241.6 L236.3,238.7 L236.8,237.7 L238.6,236.8 L241.3,236 L243.7,236.1 L245.3,235.8 L245.9,236.5 L245.8,238.2 L244.4,240.2 L243.8,242.3 L244.3,242.9 L243.9,244.4 L243.2,247.1 L242.5,246.2 L242,246.3 L242,246.8 L242.5,246.8 L242.5,247.7 L242,249.2 L242.3,249.8 L242,251 L242.1,251.3 L241.8,253.1 L241.3,254 L240.8,254.1 L240.3,255.3 L241.2,255.9 L241.4,255.4 L242.2,255.8 L242.5,256 L243,255.4 L243.8,255.3 L244,255.6 L244.4,255.4 L245.7,255.7 L246.9,255.6 L247.7,255.3 L248.1,254.9 L248.9,255 L249.5,255.3 L250.2,255.2 L250.7,254.9 L251.9,255.4 L252.4,255.5 L253.2,256.1 L253.9,256.9 L254.9,257.4 L255.6,258.3 L255.4,258.7 L255.2,259.4 L255.5,260.7 L254.9,261.9 L254.6,263.3 L254.5,264.8 L254.7,265.7 L254.7,267.2 L254.3,267.6 L254.1,269 L254.3,269.9 L253.7,270.8 L253.8,271.8 L254.2,272.3 L254.9,274.2 L255.9,275.6 L257.2,277 L258.1,278.3 L258.1,279 L259.1,279.2 L259.4,278.9 L260.1,279.7 L261.4,279.5 L262.5,278.6 L264.1,277.9 L265,276.9 L266.5,277.1 L266.4,277.4 L267.8,277.6 L269,278.1 L269.9,279.2 L270.9,280.1 L272.2,280.2 L274.2,277.8 L275.3,277.5 L275.3,276.3 L275.8,273.4 L277.3,271.8 L279,271.8 L279.2,271 L281.3,271.3 L283.3,269.6 L284.4,268.8 L285.6,267.2 L286.6,267.4 L287.3,268.3 L286.8,269.4 L286.7,270.3 L285.1,270.7 L286,272.2 L286,274 L284.8,276 L285.8,278.8 L286.9,278.5 L287.5,276 L286.7,274.8 L286.6,272.2 L289.9,270.8 L289.5,269.2 L290.4,268.1 L291.4,270.5 L293.2,270.6 L294.9,272.5 L295,273.6 L297.4,273.7 L300.2,273.3 L301.7,274.9 L303.8,275.3 L305.2,274.2 L305.3,273.3 L308.5,273.1 L311.7,273.1 L309.5,274.1 L310.4,275.7 L312.5,276 L314.5,277.7 L314.9,280.4 L316.3,280.4 L317.3,281.2 L319,282.4 L320.7,284.7 L320.7,286.5 L321.7,286.5 L323.2,288.2 L324.2,289.4 L327.4,290.1 L327.6,289.5 L329.8,289.2 L332.6,290.2 L333.5,290.6 L335.5,291.4 L338.2,294.3 L338.7,295.7 L339.6,295.5 L340.2,297.4 L341.7,303.5 L343.1,304 L343.2,306.4 L341.2,309.2 L342,310.3 L346.7,310.8 L346.8,314.3 L348.8,312 L352.1,313.2 L356.5,315.3 L357.8,317.4 L357.4,319.3 L360.4,318.2 L365.6,320 L369.5,319.9 L373.4,322.7 L376.8,326.6 L378.8,327.6 L381.1,327.7 L382,328.8 L382.9,333.2 L383.4,335.3 L382.3,341 L381,343.2 L377.2,348 L375.6,351.9 L373.6,354.9 L372.9,355 L372.2,357.5 L372.4,364 L371.7,369.3 L371.4,371.5 L370.5,372.9 L370.1,377.5 L367.4,382 L367,385.6 L364.8,387.1 L364.2,389.1 L361.3,389.1 L357.2,390.4 L355.3,392 L352.4,393 L349.3,395.7 L347,399.1 L346.6,401.7 L347.1,403.6 L346.6,407.1 L346,408.8 L344.1,410.7 L341.2,416.7 L338.9,419.5 L337.1,421.1 L335.9,424.3 L334.2,426.3 L333,428.5 L330,430.4 L328.1,429.7 L326.7,430.1 L324.2,428.6 L322.4,428.7 L320.8,426.8 L320.6,428.6 L324,431.5 L323.6,433.9 L325.3,435.4 L325.1,437.1 L322.6,441.5 L318.7,443.4 L313.4,444.1 L310.5,443.7 L311.1,445.8 L310.5,448.4 L311,450.1 L309.4,451.3 L306.7,451.8 L304.2,450.5 L303.2,451.4 L303.5,454.9 L305.3,455.9 L306.8,454.8 L307.5,456.6 L305.1,457.7 L303,459.8 L302.6,463.3 L302,465.1 L299.5,465.1 L297.4,466.9 L296.7,469.5 L299.3,472 L301.8,472.7 L300.9,475.8 L297.8,477.7 L296,481.8 L293.6,483.1 L292.6,484.7 L293.4,488.3 L295.2,490.3 L294,490.1 L291.7,490.1 L290.4,491 L288,492.2 L287.6,495.4 L286.5,495.5 L283.5,494.4 L280.5,492 L277.2,490 L276.4,487.8 L277.1,485.8 L275.8,483.5 L275.5,477.7 L276.6,474.3 L279.4,471.7 L275.4,470.7 L277.9,467.6 L278.8,461.9 L281.7,463.1 L283.1,456 L281.3,455.1 L280.5,459.4 L278.8,458.9 L279.7,454 L280.6,447.6 L281.8,445.2 L281,441.9 L280.8,438 L281.9,437.9 L283.5,432.3 L285.4,426.8 L286.5,421.7 L285.9,416.5 L286.7,413.7 L286.3,409.4 L287.9,405.2 L288.4,398.5 L289.2,391.4 L290,383.7 L289.8,378 L289.3,373.2 L286.6,371.2 L286.4,369.8 L281.2,366.3 L276.5,362.6 L274.4,360.5 L273.3,357.6 L273.8,356.6 L271.5,352.1 L268.9,345.7 L266.4,338.9 L265.4,337.3 L264.5,334.8 L262.5,332.5 L260.6,331.1 L261.4,329.6 L260.2,326.3 L261,323.9 L263.1,321.7 L264.5,319.2 L263.9,317.6 L262.9,319.2 L261.3,317.7 L261.9,316.8 L261.4,313.6 L262.3,313.1 L262.8,311 L263.8,308.8 L263.6,307.4 L265.1,306.6 L266.9,305.2 L266.6,304.2 L267.5,303.9 L267.4,302.2 L268,300.9 L269.3,300.7 L270.5,298.5 L271.5,296.7 L270.5,295.9 L271,293.9 L270.4,290.8 L271,289.9 L270.5,287 L269.5,285.1 L268.6,284.1 L268,282.3 L268.7,281.3 L268,281.1 L267.5,280 L266.2,279 L265.1,279.2 L264.5,280.4 L263.5,281.3 L262.9,281.4 L262.6,282.1 L263.9,284 L263.2,284.4 L262.8,285 L261.5,285.1 L261.1,283.1 L260.7,283.7 L259.9,283.5 L259.3,282.1 L258.3,281.8 L257.6,281.4 L256.4,281.4 L256.4,282.2 L256.1,281.7 L254.6,280.9 L254.1,280.2 L254.4,279.6 L254.3,278.8 L253.6,278 L252.5,277.3 L251.6,276.9 L251.5,275.9 L250.8,275.3 L250.9,276.3 L250.4,277.1 L249.8,276.1 L249,275.8 L248.6,275.1 L248.6,274 L249,273 L248.2,272.5 L248.8,271.8 L247.9,270.7 L246.7,269.3 L246.1,268.2 L245,267.1 L243.7,265.5 L243.9,265 L244.4,265.5 L244.6,265.3 L244.1,264.2 L243.3,263.9 L243,264.7 L241.5,264.7 L240.6,264.3 L239.5,263.6 L238,263.4 L237.2,262.7 L235.9,262.1 L234.2,262 L233,261.3 L231.6,259.9 L228.6,256.2 L227.3,255.1 L225.1,254.2 L223.6,254.4 L221.5,255.7 L220.2,256.1 L218.3,255.2 L216.4,254.5 L213.9,252.9 L211.9,252.5 L208.9,250.9 L206.7,249.2 L206,248.3 L204.6,248.1 L201.9,247 L200.8,245.4 L197.9,243.5 L196.6,241.3 L196,239.6 L196.9,239.3 L196.6,238.3 L197.2,237.4 L197.2,236.2 L196.3,234.7 L196.1,233.3 L195.2,231.6 L192.9,228.1 L190.2,225.4 L188.9,223.3 L186.7,221.9 L186.2,221 L186.6,218.9 L185.2,218.1 L183.7,216.4 L183,214 L181.6,213.8 L180.1,211.9 L178.8,210.3 L178.7,209.2 L177.3,206.6 L176.4,204 L176.4,202.6 L174.5,201.3 L173.6,201.4 L172.1,200.5 L171.7,201.9 L172.1,203.5 L172.4,206.1 L173.3,207.5 L175.3,209.9 L175.7,210.7 L176.1,211 L176.4,212.1 L176.9,212.1 L177.4,214.3 L178.2,215.2 L178.8,216.4 L180.5,218.2 L181.3,221.4 L182.1,222.9 L182.8,224.5 L183,226.3 L184.3,226.4 L185.3,228 L186.3,229.5 L186.2,230.1 L185.1,231.4 L184.6,231.4 L183.9,229.3 L182.2,227.3 L180.3,225.7 L179,224.8 L179.1,222.3 L178.7,220.4 L177.4,219.3 L175.6,217.8 L175.2,218.2 L174.6,217.3 L172.9,216.5 L171.4,214.5 L171.6,214.3 L172.7,214.4 L173.6,213.2 L173.7,211.6 L171.7,209.1 L170.2,208.2 L169.2,206 L168.2,203.8 L167,201 L165.9,197.9 L165.5,196.2 L163.8,194.2 L162.5,193.8 L162.2,192.8 L160.8,192.6 L159.8,191.7 L157.4,191.3 L156.7,190.8 L156.4,188.9 L153.8,185.4 L151.6,180.7 L151.7,179.9 L150.5,178.7 L148.5,175.8 L148.1,173 L146.7,171.1 L147.3,168.3 L147.2,165.3 L146.4,162.7 L147.4,159.4 L148,153.2 L147.6,148.6 L146.7,145.6 L146,144 L146.3,143.4 L150.1,144.5 L151.5,147.8 L152.2,146.9 L151.7,144 L150.8,141.2 L150.5,141.2 L145.4,137.8 L143.5,136.3 L138.7,134.9 L137.2,131.9 L137.6,129.8 L134.2,128.3 L133.8,125.5 L130.6,123 L130.5,121.2 L129.1,119.9 L126.8,118.8 L126,115.8 L122.6,113.1 L121.2,109.8 L118.6,109.6 L114.5,109.5 L111.4,108.5 L105.9,104.9 L103.4,104.3 L98.8,103 L95.1,103.3 L89.9,101.8 L86.8,100.3 L83.9,101 L84.4,103.4 L82.9,103.6 L79.9,104.3 L77.6,105.5 L74.6,106.2 L74.3,104.2 L75.4,100.8 L78.3,99.8 L77.5,98.9 L74.2,100.8 L72.4,103.1 L68.6,105.6 L70.5,107.2 L68,109.7 L65.2,111.2 L62.5,112.2 L61.9,113.7 L57.7,115.5 L56.9,117.1 L53.8,118.6 L52,118.3 L49.6,119.3 L46.9,120.5 L44.7,121.6 L40.1,122.6 L39.7,122 L42.6,120.4 L45.2,119.4 L48,117.5 L51.3,117.1 L52.6,115.7 L56.2,113.6 L56.8,112.9 L58.8,111.7 L59.2,109.1 L60.6,107.1 L57.5,108.1 L56.7,107.5 L55.3,108.8 L53.5,107 L52.8,108.2 L51.8,106.5 L49.2,107.9 L47.6,107.9 L47.4,105.9 L47.8,104.6 L46.1,103.4 L42.7,104 L40.5,102.4 L38.7,101.6 L38.7,99.6 L36.6,98.2 L37.6,96.2 L39.8,94.3 L40.7,92.5 L42.9,92.2 L44.7,92.8 L46.8,91.1 L48.7,91.4 L50.7,90.4 L50.2,88.8 L48.8,88.2 L50.7,86.8 L49.1,86.9 L46.3,87.6 L45.5,88.4 L43.4,87.6 L39.7,88 L35.8,87.2 L34.7,85.8 L31.4,83.8 L35.1,82.4 L41,80.7 L43.1,80.7 L42.8,82.4 L48.4,82.3 L46.2,80.1 L43,78.8 L41.1,77.1 L38.6,75.6 L34.9,74.5 L36.4,72.7 L41.1,72.6 L44.4,71.1 L45,69.4 L47.7,67.7 L50.3,67.3 L55.3,65.8 L57.7,66 L61.8,64.2 L65.8,64.9 L67.7,66.5 L68.9,65.8 L73.3,66 L73.2,66.8 L77.2,67.4 L79.9,67.1 L85.5,68.2 L90.5,68.5 L92.6,68.9 L96.1,68.4 L100.1,69.4 L103,69.9 L107.9,70.7 L112,72.4 L114.8,72.7 L117.1,71.2 L120.3,70.2 L124.2,70.6 L128.2,69.1 L132.5,68.2 L134.3,69.6 L136.3,68.8 L136.9,67.2 L138.7,67.6 L143.1,70.7 L146.7,68.3 L147,71 L150.3,70.4 L151.3,69.4 L154.4,69.6 L158.5,71 L164.7,72.3 L168.3,72.9 L170.9,72.7 L174.4,74.4 L170.7,76.1 L175.5,76.9 L182.6,76.4 L184.9,75.8 L187.7,77.9 L190.5,76.2 L187.9,74.7 L189.6,73.5 L192.8,73.4 L194.9,73 L197,73.8 L199.7,75.7 L202.6,75.4 L207.3,77 L211.4,76.4 L215.2,76.5 L214.9,74.4 L217.3,73.8 L221.4,75 L221.3,78.2 L223,75.5 L225.1,75.6 L226.3,72.1 L223.5,70 L220.4,68.6 L220.6,64.8 L223.8,62.3 L227.2,62.8 L229.9,64.3 L233.5,68.2 L231.1,69.9 L236.1,70.6 Z M173.7,58.1 L172.4,59.8 L178.3,58.7 L182,60.4 L184.9,58.7 L187.3,59.8 L189.5,63.2 L190.8,61.8 L189,58.2 L191.3,57.7 L193.9,58.3 L196.9,59.7 L198.5,63 L199.3,65.5 L203.8,67.2 L208.5,68.8 L208.2,70.3 L203.9,70.6 L205.6,71.9 L204.7,73.2 L199.9,72.6 L195.4,71.7 L192.3,71.9 L187.4,73.1 L179.5,73.7 L176,73.9 L174.5,72.3 L170.9,71.4 L168.6,71.8 L165.4,69 L167.1,68.7 L171.2,68.1 L174.9,68.2 L178.3,67.6 L173.2,66.8 L167.6,67.1 L163.9,67 L162.5,65.8 L168.6,64.4 L164.5,64.4 L159.9,63.5 L162.1,60.9 L164,59.6 L171,57.5 L173.7,58.1 Z M199.2,57.1 L196.9,59.4 L192.8,57 L193.7,56.5 L197.2,56.4 L199.2,57.1 Z M273.5,58.2 L273.8,59.2 L271,59.1 L268.1,59 L265.2,59.4 L264.5,59.2 L261.6,57.4 L261.7,56.2 L263,55.9 L269,56.3 L273.5,58.2 Z M246.6,58 L248.7,60.2 L251.1,57.4 L257.8,56 L262.3,59.5 L261.9,61.8 L267.1,60.8 L269.6,59.4 L275.5,61.2 L279.1,62.8 L279.5,64.3 L284.4,63.5 L287.1,65.7 L293.5,67.1 L295.8,68.5 L298.3,71.7 L293.4,73.3 L299.6,75.5 L303.8,76.3 L307.6,79.5 L311.8,79.7 L311,82.1 L306.3,86.1 L303.1,84.6 L298.9,81.3 L295.5,81.8 L295.2,83.7 L298,85.7 L301.5,87.3 L302.6,88.2 L304.3,91.6 L303.4,94.1 L300.1,93.2 L293.5,90.4 L297.2,93.4 L300,95.5 L300.4,96.7 L293.2,95.3 L287.6,93.3 L284.4,91.6 L285.3,90.7 L281.4,88.9 L277.5,87.2 L277.6,88.2 L269.9,88.8 L267.7,87.6 L269.4,85 L274.4,85 L279.8,84.5 L278.9,83.3 L279.9,81.6 L283.3,78.2 L282.6,76.7 L281.5,75.5 L277.5,73.9 L272.2,72.7 L273.8,71.8 L271,69.7 L268.7,69.5 L266.6,68.3 L265.2,69.3 L260.4,69.8 L250.8,69 L245.3,68 L241,67.5 L238.8,66.3 L241.5,64.7 L237.8,64.7 L237,61.2 L239,58.1 L241.7,56.7 L248.5,55.8 L246.6,58 Z M210.2,55.6 L213.3,56.4 L218,55.9 L218.7,56.9 L216.2,58.6 L220.2,60.1 L219.8,63.2 L215.4,64.5 L212.9,64.2 L211.1,62.9 L204.5,60.2 L204.6,59.1 L210,59.6 L207,57.3 L210.2,55.6 Z M854,57.8 L850,57.8 L844.5,57.5 L844.1,57.3 L846.6,55.9 L849.9,55.6 L853.6,56.9 L854,57.8 Z M229.1,59.3 L226.2,61.9 L223.2,61.8 L221.6,58.8 L221.6,57 L223,55.6 L225.6,54.6 L231.1,54.8 L236.2,55.6 L232.2,58.7 L229.1,59.3 Z M157.1,64.1 L150.2,65.8 L148.8,64.3 L142.7,62.5 L143.6,61.3 L145.6,58.5 L147.9,56.2 L145.4,54.1 L154.3,53.6 L158,54.3 L164.8,54.5 L167.3,55.5 L170.2,56.9 L166.9,57.8 L160.4,60.2 L157.1,62.6 L157.1,64.1 Z M872.8,51.4 L869.7,52.7 L865.5,52.4 L860.6,51.1 L861.2,50 L866.1,50.5 L872.8,51.4 Z M228,51.7 L226.5,53.1 L222.7,52.8 L219.5,51.9 L220.9,50.4 L224.7,49.4 L227,50.6 L228,51.7 Z M857.9,49.7 L855.8,52.3 L846.1,52.2 L841.7,53 L836.5,50.8 L837.9,48.4 L841.4,47.8 L848.3,47.9 L857.9,49.7 Z M215.1,45.7 L217.1,47.3 L217.2,49.1 L216,51.7 L211.6,52 L208.8,51.5 L208.8,49.5 L204.5,49.7 L204.3,47.1 L207.2,47.2 L211.2,46 L214.9,46.2 L215.1,45.7 Z M189.4,47.5 L190.5,48.8 L192.8,48.2 L195.6,48.3 L196.1,50 L194.5,51.6 L185.5,52.2 L178.9,53.7 L174.8,53.8 L174.5,52.6 L180,51.1 L168.1,51.5 L164.4,50.9 L168,47.5 L170.5,46.6 L177.9,47.7 L182.6,49.8 L187.2,50 L183.4,46.7 L185.8,45.5 L188.6,45.9 L189.4,47.5 Z M626.8,66.4 L625.3,66.7 L616.6,66.3 L615.9,64.7 L611.2,63.8 L610.8,61.9 L613.5,61.2 L613.4,59.3 L618.6,56.4 L616.2,56 L622.5,52.9 L621.8,51.4 L627.7,49.6 L636.4,47.4 L645.2,46.7 L649.7,45.4 L654.9,45 L656.7,46.3 L654.9,47.4 L645.6,49.1 L637.5,50.8 L629.3,54 L625.4,57.4 L621.2,60.7 L621.8,63.6 L626.8,66.4 Z M225.1,44.4 L228.1,45.5 L233.3,45.5 L235.5,46.7 L234.9,48 L238,48.7 L239.6,49.6 L243.2,49.7 L247.1,50 L251.2,49.3 L256.6,49 L260.9,49.2 L263.7,50.5 L264.3,51.9 L262.7,52.8 L258.7,53.6 L255.4,53.2 L247.8,53.7 L242.4,53.8 L238.1,53.3 L231.1,52.2 L230.2,50.3 L229.9,48.6 L227.2,47.1 L221.8,46.7 L218.7,45.6 L219.7,44.2 L225.1,44.4 Z M168.4,42.6 L168,45.2 L166,46.4 L163.5,46.6 L158.6,48 L154.4,48.6 L150.8,47.8 L150.8,47.8 L155.3,45.2 L160.7,43 L164.7,43.1 L168.4,42.6 Z M757.3,44.9 L758,46.6 L760.4,45.7 L768.1,45.8 L774.1,47.5 L776.2,48.7 L775.5,50.5 L772.6,51.6 L765.7,53.5 L763.7,54.5 L767,55 L770.9,55.8 L773.2,55.2 L774.6,57.4 L775.8,56.5 L780,56 L788.4,56.5 L789.1,58.1 L800.1,58.7 L800.3,56 L805.9,56.6 L810.1,56.6 L814.3,58.4 L815.6,60.6 L814,62.1 L817.3,64.8 L821.5,66.2 L824,62.6 L828.2,64.1 L832.7,63.2 L837.8,64.2 L839.8,63.3 L844.1,63.8 L842.2,60.6 L845.7,59.1 L869.5,61.3 L871.8,63.4 L878.7,66 L889.3,65.3 L894.6,65.9 L896.8,67.3 L896.5,69.8 L899.7,70.8 L903.2,70.1 L907.9,70 L912.9,70.7 L917.9,70.3 L922.5,73.4 L925.8,72.3 L923.6,70.1 L924.8,68.6 L933.2,69.5 L938.7,69.3 L946.3,71 L950,72.5 L950,86.2 L950,86.2 L946.6,87.7 L943.2,87.5 L945.5,89.3 L947.1,92.1 L948.3,93.1 L948.6,94.5 L948,95.4 L943,94.6 L935.7,97.2 L933.3,97.6 L929.3,100.1 L925.5,102.2 L924.5,103.7 L920.7,101.4 L913.8,104.1 L912.6,102.8 L910.1,104.3 L906.6,103.8 L905.7,106.1 L902.5,109.4 L902.6,110.8 L905.6,111.5 L905.3,116.6 L902.8,116.7 L901.7,119.6 L902.8,121.1 L898.2,122.8 L897.3,126.7 L893.3,127.6 L892.6,131.1 L888.8,134.3 L887.8,131.9 L886.6,126.9 L885.2,119.2 L886.4,114.5 L888.7,112.4 L888.8,110.8 L892.9,110 L897.6,105.7 L902.2,102.2 L906.9,99.4 L909,94.5 L905.8,94.8 L904.2,97.7 L897.5,101.5 L895.4,97.2 L888.6,98.4 L882,104.2 L884.1,106.3 L878.3,107.2 L874.2,107.5 L874.4,105 L870.3,104.5 L867,106.2 L858.9,105.6 L850.2,106.6 L841.7,113.4 L831.6,121.5 L835.7,121.9 L837,124.1 L839.6,124.8 L841.3,123.1 L844.2,123.3 L848,127.1 L848.1,130.1 L846,133.5 L845.8,137.6 L844.6,143.1 L840.6,148.1 L839.7,150.5 L836.2,154.5 L832.6,158.5 L830.9,160.5 L827.4,162.5 L825.7,162.6 L824.1,160.9 L820.5,163.4 L820.1,164.6 L819.1,164.4 L818,165.5 L817.2,166.7 L817.3,169.2 L815.9,169.9 L815.4,170.6 L814.4,171.6 L812.7,172.1 L811.5,173.1 L811.5,174.6 L811.2,174.9 L812.2,175.5 L813.7,177 L816,181.1 L816.6,183.3 L816.7,187.3 L815.7,189.2 L813.3,189.8 L811.2,191.3 L808.8,191.5 L808.5,189.7 L809,187.1 L807.8,183.5 L809.8,182.9 L808,180 L806.7,179.3 L806.4,180 L805.6,180.3 L805.5,179.6 L804.8,179.3 L804.1,178.7 L804.8,177.2 L805.4,176.8 L805.2,176.2 L805.9,174.3 L805.7,173.8 L804.2,173.4 L802.9,172.5 L799.2,173.5 L797.3,175.1 L794.4,176 L795.9,174.4 L795.3,173.1 L797.4,170.8 L796,169 L793.7,170.2 L790.7,172.6 L789.1,174.8 L786.5,175 L785.2,176.6 L786.5,178.9 L788.7,179.5 L788.8,181 L790.9,182 L793.8,179.6 L796.2,180.9 L797.9,181 L798.3,182.8 L794.6,183.8 L793.3,185.6 L790.8,187.3 L789.4,189.8 L792.3,191.6 L793.3,195 L794.9,198.2 L796.7,200.8 L796.7,203.4 L795,204.3 L795.6,206.2 L797.2,207.2 L796.8,210 L796.1,212.8 L794.6,213.1 L792.7,216.8 L790.6,221.3 L788.1,225.4 L784.5,228.6 L780.8,231.5 L777.8,231.9 L776.2,233.5 L775.3,232.3 L773.8,234 L770.1,235.8 L767.4,236.3 L766.4,239.9 L765,240.1 L764.3,237.6 L764.9,236.3 L761.4,235.2 L760.1,235.8 L756.6,238.7 L754.4,242 L753.8,244.4 L755.8,248 L758.3,252.5 L760.7,254.6 L762.3,257.4 L763.5,263.8 L763.2,269.8 L761,272.1 L757.9,274.3 L755.8,277.2 L752.5,280.4 L751.5,278.2 L752.3,275.8 L750.3,273.9 L748.1,273.4 L747,271.6 L745.7,268 L743.3,266.4 L741.1,266.5 L741.5,263.8 L739.1,263.8 L738.9,267.6 L737.5,272.6 L736.7,275.7 L736.8,278.2 L738.6,278.3 L739.6,281.4 L740.1,284.4 L741.6,286.4 L743.2,286.8 L744.5,288.6 L745.1,288.9 L746.7,291 L747.8,293.3 L748,295.6 L747.7,297.2 L747.9,298.3 L748.1,300.4 L749.1,301.3 L750.1,304.4 L750,305.5 L748.2,305.8 L745.7,303.2 L742.6,300.5 L742.2,298.7 L740.7,296.4 L740.4,293.6 L739.4,291.7 L739.7,289.2 L739.1,287.7 L738.1,286.4 L737.6,284.7 L736.2,282.8 L734.9,281.1 L734.5,283.2 L734,281.2 L734.3,279.1 L735.1,275.8 L734.8,273.2 L735.6,270.6 L734.7,268.6 L735,264.8 L733.9,263 L733,258.9 L732.5,254.5 L731.4,251.7 L729.7,253.4 L726.7,255.9 L725.2,255.6 L723.6,254.8 L724.5,250.5 L723.9,247.3 L721.8,243.3 L722.2,242.1 L720.6,241.6 L718.8,238.8 L718,237 L717.8,235.2 L717.3,233.6 L716.2,231.6 L713.8,231.4 L714,232.9 L713.2,234.8 L712.1,234.1 L711.7,234.7 L711,234.3 L709.9,234 L709.6,235.3 L707.8,235.2 L704.5,236 L704.7,238.6 L703.3,240.6 L699.5,242.9 L696.5,247 L694.5,249.1 L691.9,251.4 L691.9,253 L690.6,253.8 L688.2,255.1 L687,255.2 L686.2,257.9 L686.7,262.3 L686.9,265.2 L685.7,268.5 L685.7,274.3 L684.4,274.5 L683.2,277.1 L684,278.3 L681.6,279.2 L680.7,281.6 L679.6,282.6 L677.1,279.3 L675.9,274.5 L674.9,271 L674,269.4 L672.6,266.1 L671.9,261.8 L671.4,259.7 L669,254.9 L668,248.2 L667.2,243.8 L667.2,239.7 L666.7,236.4 L662.8,238.5 L661,238.1 L657.5,233.9 L658.8,232.7 L658,231.3 L654.9,228.4 L653,227.5 L652.2,225 L650.2,222.4 L645.3,223.1 L641,223.1 L637.3,223.6 L632.3,222.6 L629.4,221.8 L626.5,221.3 L625.3,217.1 L624.1,216.5 L622,217.1 L619.4,218.8 L616.2,217.6 L613.5,215 L611,214 L609.2,210.8 L607.2,206.2 L605.8,206.7 L604.2,205.6 L603.2,206.9 L601.6,206.7 L602.2,208.3 L601.9,209.1 L602.8,211.7 L603.8,214.6 L605.1,215.4 L605.5,216.6 L607.3,218.1 L607.5,219.5 L607.2,220.6 L607.6,221.8 L608.3,222.8 L608.7,223.9 L609.1,224.7 L608.9,222.2 L609.6,220.4 L610.3,220 L611.1,221.1 L611.2,223.1 L610.6,225.2 L611.1,226.5 L611.6,226.3 L611.7,227.3 L613.7,226.7 L615.9,226.8 L617.5,226.9 L619.3,224.6 L621.3,222.4 L623,220.3 L623.7,219.1 L624.1,219.4 L623.8,220.8 L623.5,221.4 L623.8,224.1 L625,226.5 L626.5,227.8 L628.4,228.2 L630,228.8 L631.2,230.8 L631.9,231.9 L632.8,232.4 L632.8,233.2 L631.9,235.2 L631.4,236.2 L630.3,237.3 L629.3,239.6 L628.1,239.5 L627.6,240.3 L627.2,242 L627.5,244.3 L627.2,244.7 L626,244.7 L624.4,246 L624.1,247.7 L623.5,248.4 L621.9,248.4 L620.9,249.3 L620.9,250.7 L619.6,251.6 L618.1,251.3 L616.4,252.5 L615.1,252.6 L613.2,253.6 L612.7,255.1 L612.7,256.3 L610,257.7 L605.8,259.3 L603.5,261.8 L602.3,262 L601.5,261.8 L600,263.2 L598.3,263.8 L596.1,264 L595.4,264.2 L594.8,265.1 L594.1,265.4 L593.7,266.3 L592.4,266.2 L591.6,266.6 L589.7,266.5 L589.1,264.5 L589.1,262.6 L588.7,261.6 L588.2,259 L587.4,257.6 L588,257.4 L587.7,255.9 L588,255.2 L587.9,253.7 L587.5,252.2 L586.8,251.2 L586.5,249.8 L585.2,248.6 L583.8,245.7 L583,242.9 L581.2,240.5 L580,239.9 L578.3,236.7 L578,234.3 L578.1,232.2 L576.6,228.4 L575.3,227.1 L573.9,226.3 L573,224.4 L573.2,223.6 L572.5,221.8 L571.7,221 L570.7,218.5 L569.1,215.7 L567.7,213.3 L566.4,213.4 L566.8,211.5 L566.9,210.3 L567.2,208.9 L567.2,208.4 L566.4,209.8 L565.8,212.4 L565.1,214.2 L564.5,214.8 L563.6,213.7 L562.4,212.1 L560.6,207.2 L560.3,207.5 L561.4,211.1 L563,214.6 L565,220 L566,221.8 L566.8,223.8 L569.2,227.6 L568.7,228.2 L568.7,230.4 L571.8,233.5 L572.3,234.2 L573.1,237.6 L572.6,238.2 L572.9,241.8 L573.9,245.9 L574.9,246.7 L576.4,248 L577.9,252 L578.6,255.2 L580.1,256.8 L583.7,260.1 L585.1,262 L586.6,264 L587.4,265.2 L588.7,266.3 L589.3,267.3 L589.2,268.8 L587.7,269.6 L588.9,270.5 L589.7,271.2 L590.2,272.6 L591.4,274 L592.7,274 L595.2,273.2 L598.1,272.7 L600.4,271.7 L601.7,271.4 L602.7,270.8 L604.2,270.7 L605,270.6 L606.2,270.1 L607.6,269.8 L608.9,268.6 L609.9,268.6 L609.9,269.5 L609.7,271.5 L609.7,273.3 L609.1,274.6 L608.4,278.3 L607.1,282.2 L605.5,286.6 L603.2,291.6 L601,295.5 L597.9,300.2 L595.2,303 L591.3,306.4 L588.8,309 L585.9,313.2 L585.3,315 L584.7,315.8 L582.9,317.2 L582.2,318.6 L581.2,318.9 L580.9,321.3 L580,322.7 L579.5,325 L578.5,326.1 L577.2,330.4 L577.4,332.3 L579.1,333.6 L579.2,334.5 L578.4,336.5 L578.6,337.6 L578.4,339.2 L579.3,341.4 L580.4,344.8 L581.4,345.5 L581.8,347.1 L581.7,350.5 L582,353.5 L582.1,358.9 L582.6,360.6 L581.8,363.1 L580.8,365.5 L579.1,367.6 L576.7,368.9 L573.7,370.6 L570.7,374.3 L569.7,374.9 L567.9,377.3 L566.8,378.1 L566.6,380.6 L567.8,383.2 L568.3,385.2 L568.4,386.3 L568.8,386.1 L568.8,389.5 L568.3,391.1 L569,391.7 L568.6,393.1 L567.5,394.3 L565.3,395.5 L562.1,397.3 L561,398.6 L561.2,400.1 L561.9,400.3 L561.6,402.1 L561,404.6 L560.7,407.5 L560,409 L558.2,410.8 L557.7,411.3 L556.5,413 L555.8,414.8 L554.3,417.3 L551.3,420.8 L549.5,422.9 L547.5,424.4 L544.7,425.8 L543.4,426 L543,426.9 L541.4,426.4 L540.1,427.1 L537.3,426.4 L535.7,426.8 L534.6,426.6 L531.8,428 L529.6,428.5 L528,429.8 L526.8,429.9 L525.6,428.7 L524.8,428.6 L523.6,427.1 L523.5,427.6 L523.1,426.7 L523.2,424.6 L522.3,422.3 L523.2,421.7 L523.1,419.1 L521.4,415.8 L520,412.9 L520,412.9 L518.1,408.4 L516.2,405.8 L515.1,403.3 L514.6,400 L513.9,397.5 L513,392.2 L513,388 L512.6,386.2 L511.6,384.7 L510.2,381.9 L508.8,377.8 L508.3,375.6 L506.1,372.2 L506,369.6 L505.7,367.4 L506.1,364.4 L507,361.2 L507.1,359.8 L508,356.7 L508.6,355.3 L510.1,353 L511,351.5 L511.3,348.9 L511.1,347 L510.3,345.7 L509.6,343.6 L509,341.6 L509.1,340.9 L509.9,339.5 L509.1,336.2 L508.6,333.9 L507.3,331.7 L507.5,331 L507.1,329.9 L506.4,327.4 L504.3,323.7 L501.6,320.2 L499.8,317.4 L498.2,313.8 L498.3,312.7 L498.9,311.6 L499.5,309.1 L500.1,306.5 L499.6,306 L500.5,302.1 L500.8,299.4 L499.8,297.1 L498.6,296.6 L498.1,295 L497.4,294.5 L497.4,293.6 L494.7,294.8 L493.7,294.6 L492.7,295.4 L490.6,295.3 L489.2,293.2 L488.3,290.7 L486.4,288.4 L484.4,288.4 L482.1,288.4 L479.9,288.8 L477.8,289.6 L473.7,291.6 L472.2,292.8 L469.8,293.8 L467.5,292.8 L466.3,292.8 L464.4,292.2 L462.7,292.2 L459.6,292.8 L457.8,293.8 L455.2,295.1 L454.6,295 L454,295 L451.2,293.4 L448.8,290.7 L446.6,288.8 L444.8,286.6 L444.1,286.4 L442.2,285 L440.8,283.1 L440.4,281.9 L440,279.3 L438.9,277.3 L437.9,275.9 L437.2,275.5 L436.5,274.8 L436.2,273.3 L435.8,272.5 L435.1,272 L433.7,270.5 L432.6,270.3 L431.9,269.3 L432,268.8 L431.2,268.1 L431,267.3 L430.6,264.7 L430.9,263.2 L429.8,260.5 L428.5,259.3 L429.7,258.6 L430.9,256.2 L431.6,254.4 L431.3,252.6 L432.1,250.9 L432.4,247.6 L432.1,244.2 L431.8,242.5 L432,240.8 L431.4,239.2 L430,237.7 L430.1,236.2 L430.2,234.6 L431.2,233.7 L432.1,231.9 L431.9,230.7 L432.8,228.3 L434.3,226.1 L435.2,225.5 L435.9,223.5 L435.9,221.7 L436.9,219.6 L438.7,218.3 L440.3,214.8 L441.7,213.4 L444.2,213 L446.2,210.7 L447.6,209.8 L449.8,206.9 L449.1,202.6 L450.1,199.6 L450.5,197.8 L452.2,195.5 L454.8,193.9 L456.8,192.5 L458.5,188.9 L459.4,186.8 L461.3,186.8 L462.9,188.3 L465.4,188.1 L468.1,188.8 L469.3,188.9 L471.8,187 L474.7,186.4 L476.3,185 L478.9,183.9 L483.3,183.3 L487.7,183 L489,183.5 L491.5,182.2 L494.3,182.1 L495.4,182.9 L497.2,182.7 L500.1,181.3 L501.9,181.8 L501.9,183.5 L504.1,182.2 L504.3,182.9 L503,184.6 L503,186.2 L503.9,187 L503.5,190 L501.8,191.7 L502.3,193.6 L503.7,193.7 L504.3,195.3 L505.3,195.9 L508.4,197 L509.5,196.8 L511.7,197.3 L515.2,198.9 L516.5,201.9 L518.8,202.6 L522.6,204 L525.4,205.7 L526.7,204.9 L527.9,203.3 L527.3,200.6 L528.1,199 L530,197.3 L531.8,196.9 L535.4,197.6 L536.3,199.1 L537.3,199.1 L538.1,199.7 L540.8,200.1 L541.4,201.3 L544.9,201.2 L547.5,202.1 L550.1,203.1 L551.3,203.7 L553.3,202.6 L554.4,201.6 L556.7,201.3 L558.6,201.7 L559.3,203.5 L560,202.3 L562.1,203.1 L564.1,203.3 L565.4,202.5 L566.2,201.3 L566,201.1 L566.7,199.5 L567.2,196.9 L567.6,196.1 L567.7,196 L568.6,193.2 L569.9,190.8 L570,190.7 L569.7,188 L570.4,186.6 L569.4,185.1 L570.4,183.8 L568.8,184.1 L566.6,183.3 L564.8,185.2 L560.8,185.6 L558.7,183.8 L555.8,183.7 L555.2,185.1 L553.4,185.5 L550.8,183.7 L547.9,183.7 L546.4,180.3 L544.5,178.4 L545.7,175.7 L544.1,174.1 L547,170.8 L551.1,170.6 L552.2,168 L557.2,168.5 L560.4,166.2 L563.4,165.3 L567.8,165.2 L572.4,167.6 L576.2,169 L579.3,168.4 L581.5,168.7 L584.7,166.9 L585.1,165.5 L584.4,163.1 L582.9,161.8 L581.4,161.4 L580.4,160.4 L577.1,157.5 L574.1,156.2 L571.8,154.2 L573.7,153.6 L575.9,150.7 L574.4,149.4 L578.3,148 L578.2,147.2 L575.9,147.8 L573.8,148 L572,149.1 L569.5,149.3 L567.3,150.6 L567.4,152.8 L568.7,153.6 L571.4,153.4 L570.9,154.6 L568,155.2 L564.4,157.2 L562.9,156.5 L563.5,154.9 L560.6,153.9 L561.1,153.2 L563.6,152.1 L562.9,151.3 L558.8,150.4 L558.6,149.1 L556.1,149.5 L555.2,151.4 L553.1,154 L553.2,154.9 L551.9,155.6 L551.1,155.3 L550.4,159.5 L549,160.9 L548,163.3 L548.9,165.3 L549.2,166.6 L551.5,167.7 L551,168.6 L547.9,168.8 L546.8,169.8 L544.6,171.7 L543.7,170.1 L543.8,169.4 L542.2,169.3 L540.8,169 L537.6,169.9 L539.4,171.8 L538.1,172.4 L536.6,172.4 L535.2,170.6 L534.7,171.3 L535.3,173.4 L536.6,175 L535.6,175.8 L537.1,177.4 L538.4,178.4 L538.4,180.3 L536,179.4 L536.8,181.1 L535.1,181.5 L536.1,184.5 L534.3,184.6 L532.2,183.1 L531.2,180.3 L530.7,178 L529.7,176.5 L528.4,174.5 L528.2,173.5 L527.7,173.3 L527.7,172.5 L526.2,171.4 L526,169.7 L526.2,167.4 L526.6,166.3 L526.1,165.8 L525.6,165.5 L524.8,164.4 L523.7,163.7 L521.2,162.4 L519.7,161.2 L517.3,160.1 L515,157.6 L515.6,157.3 L514.4,155.9 L514.3,154.7 L512.6,154.2 L511.8,155.7 L511,154.5 L511.1,153.3 L511.2,153.3 L511.8,153 L509.7,152.5 L507.5,153.7 L507.7,155.4 L507.4,156.4 L508.2,158.1 L510.7,159.9 L512,162.7 L515,165.5 L517,165.5 L517.7,166.2 L516.9,166.9 L519.3,168.2 L521.2,169.2 L523.5,171 L523.8,171.6 L523.3,172.9 L521.8,171.3 L519.5,170.7 L518.4,172.9 L520.3,174.2 L520,176 L518.9,176.2 L517.5,179.2 L516.4,179.4 L516.4,178.4 L516.9,176.5 L517.5,175.8 L516.5,173.8 L515.7,172.1 L514.6,171.6 L513.8,170.1 L512.1,169.5 L511,168.1 L509,167.9 L506.9,166.4 L504.5,164.1 L502.7,162.1 L501.9,158.7 L500.6,158.3 L498.5,157.2 L497.2,157.6 L495.7,159.2 L494.6,159.5 L492.2,161.4 L487,160.5 L483.2,161.6 L482.9,163.7 L483,165.7 L480.5,168 L477.1,168.7 L476.9,169.9 L475.3,171.8 L474.3,174.6 L475.3,176.6 L473.8,178.1 L473.2,180.3 L471.2,181 L469.3,183.7 L466,183.7 L463.5,183.7 L461.8,184.9 L460.8,186.2 L459.5,185.9 L458.5,184.7 L457.8,182.8 L455.3,182.2 L454.3,183.1 L452.9,182.6 L451.5,183 L451.9,180.3 L451.7,178.2 L450.5,177.9 L449.9,176.6 L450.1,174.3 L451.1,173.1 L451.3,171.7 L451.9,169.6 L451.8,168.1 L451.3,166.9 L451.2,165.7 L451.3,163.3 L450.2,161.8 L453.9,159.3 L457.2,159.9 L460.7,159.9 L463.5,160.5 L465.7,160.3 L470,160.4 L471.3,158.4 L471.8,151.5 L469.1,147.9 L467.2,146.1 L463.1,144.8 L462.9,142.3 L466.3,141.6 L470.7,142.4 L469.9,138.5 L472.4,140 L478.5,137.3 L479.3,134.5 L481.6,133.8 L483.7,133.1 L485.1,132.2 L487.4,127.1 L491,125.7 L493.2,125.8 L493.7,125.1 L495.9,124.9 L496.4,125.6 L498.2,123.9 L497.6,122.6 L497.5,120.7 L496.4,118.8 L496.3,115.3 L496.8,114.3 L497.5,113.3 L499.9,113.1 L500.8,112.1 L502.9,111.2 L502.8,112.9 L502,114 L502.4,115 L503.8,115.5 L503.2,116.8 L502.4,116.5 L500.5,118.9 L501.2,120.6 L501.2,121.9 L503.9,122.7 L503.9,124 L506.6,123.3 L508,122.4 L511,123.7 L512.3,124.8 L514.1,123.8 L518.2,122.2 L521.5,121.1 L524.1,121.6 L524.3,122.5 L526.9,122.5 L527.5,121 L531.1,119.9 L530.6,117 L530.7,114.4 L532,112.2 L534.4,111.1 L536.5,113.6 L538.7,113.6 L539.2,110.9 L539.5,108.9 L538.5,109.3 L536.8,108.1 L536.6,106.1 L539.9,105.2 L543.3,104.7 L546.1,105.2 L548.8,105.1 L551.8,103.2 L549.1,101.6 L544.3,101.9 L539.6,103.1 L535.4,103.9 L533.8,102 L531.3,100.9 L531.9,97.5 L530.6,94.4 L531.8,92.3 L534.2,90.2 L540.3,86.4 L542,85.7 L541.7,84.3 L538.1,82.6 L533.5,83.6 L531,86 L531.4,88.1 L527.2,90.9 L522.1,93.9 L520.2,98.7 L522.1,101.1 L524.6,103.1 L522.2,106.9 L519.4,107.7 L518.4,113.5 L516.9,116.8 L513.7,116.4 L512.2,119.2 L509.2,119.3 L508.3,116.1 L506.1,112.1 L504.1,107.3 L502.3,105.2 L497.1,109.1 L493.6,110 L490,108.2 L489,104.5 L488.2,96.5 L490.6,94.3 L497.6,91.4 L502.8,87.9 L507.6,83.1 L514,76.4 L518.4,73.8 L525.6,69.5 L531.4,68 L535.8,68.2 L539.8,65.3 L544.6,65.5 L549.3,64.8 L557.6,67.3 L554.2,68.2 L557.1,70.4 L559.8,69.2 L564.1,71.3 L571.4,72.1 L581.3,76 L583.4,77.6 L583.5,79.9 L580.6,81.7 L576.3,82.7 L564.5,80 L562.6,80.5 L566.9,83 L567.2,88.1 L570.6,89.2 L572.7,90.1 L573,88.4 L571.4,86.9 L573.1,85.6 L579.5,87.8 L581.7,86.9 L579.9,84.4 L586.1,81 L588.5,81.2 L591,82.4 L592.5,80.1 L590.3,78 L591.6,75.9 L589.7,73.8 L597,74.9 L598.6,76.8 L595.2,77.3 L595.2,79.2 L597.3,80.4 L601.4,79.6 L602,77.4 L607.5,75.8 L616.8,72.8 L618.7,73 L616.1,75.1 L619.4,75.4 L621.3,74.3 L626.3,74.2 L630.2,72.7 L633.2,74.8 L636.2,72.5 L633.4,70.5 L634.8,69.4 L642.6,70.4 L646.2,71.5 L655.8,75.5 L657.6,73.7 L654.9,71.8 L654.8,71.1 L651.6,70.8 L652.5,69.1 L651.1,66.4 L651,65.3 L655.9,62.2 L657.6,59.1 L659.6,58.4 L666.6,59.3 L667.1,61.2 L664.6,64 L666.2,65.1 L667.1,67.5 L666.5,72.3 L669.4,74.4 L668.3,76.7 L663.1,81.6 L666.1,82.1 L667.2,80.8 L670.1,79.9 L670.8,78.2 L673.1,76.6 L671.5,74.6 L672.7,72.4 L669.9,72.1 L669.2,70.2 L671.3,66.7 L667.9,63.9 L672.6,61.6 L672,59.1 L673.3,59.1 L674.7,61 L673.7,64.3 L676.5,64.9 L675.3,62.4 L679.7,61.1 L685.2,60.9 L690.1,62.9 L687.7,60 L687.5,56.3 L692,55.6 L698.4,55.8 L704.1,55.3 L702,53.5 L705,51.3 L708.1,51.2 L713.2,49.5 L720.2,49 L721,48.1 L728,47.7 L730.1,48.5 L736,46.7 L740.9,46.7 L741.6,45.3 L744.1,43.8 L750.4,42.4 L754.9,43.5 L751.3,44.3 L757.3,44.9 Z M604.6,167.8 L605.9,170.2 L607.2,170.4 L608,171.3 L605.8,171.6 L605.3,174.3 L604.9,175.5 L603.9,176.3 L604,178 L604.8,180.5 L607.3,181.3 L609.2,183 L612.9,183.6 L617,182.7 L617.3,181.9 L616.8,179.4 L617.2,175.8 L615.1,174.7 L615.8,172.3 L614.1,172.1 L614.6,169.2 L617.1,170 L619.4,168.9 L617.5,166.9 L616.8,164.9 L614.6,165.8 L614.4,168.3 L613.5,166.1 L613.4,165.2 L614,163.8 L613.5,162.6 L610.5,161.4 L609.3,158.3 L607.8,157.5 L607.8,156.3 L610.3,156.7 L610.4,154.2 L612.7,153.6 L615,154.1 L615.4,150.7 L615,148.6 L612.3,148.8 L610.1,147.9 L607,149.5 L604.6,150.2 L603.4,152.2 L600.8,152.8 L598.2,156.3 L600.6,159.6 L600.3,161.9 L603.2,166 L604.6,167.8 Z M227.4,43 L226.2,43.1 L221.2,42.9 L220.5,41.9 L225.8,42 L227.7,42.6 L227.4,43 Z M184.2,42.4 L179.3,43.4 L175.4,42.3 L177.5,41.2 L181.4,40.8 L185.1,41.3 L184.2,42.4 Z M540.2,41.8 L534.3,43.2 L529.7,42.4 L531.5,41.6 L529.9,40.5 L535.4,39.8 L536.4,41.1 L540.2,41.8 Z M185.6,39.3 L182.4,39.9 L178,39.9 L178.1,39.4 L180.8,38.4 L182.2,38.6 L185.6,39.3 Z M222.1,41.1 L218.2,41.8 L216.1,41 L214.9,39.8 L214.7,38.3 L218.1,38.5 L219.7,38.7 L222.8,39.9 L222.1,41.1 Z M211,40.2 L212,41.7 L207.7,41.3 L203.3,40.2 L197.5,40 L200,39 L196.8,38.2 L196.6,36.9 L201.8,37.3 L208.9,38.6 L211,40.2 Z M752.3,40.3 L737.4,41.6 L742.2,37.1 L744.4,36.7 L746.4,36.9 L753.1,38.9 L752.3,40.3 Z M523.2,35.5 L531.9,38 L525.2,39.4 L523.7,41.9 L521.4,42.6 L520.2,45.4 L517,45.6 L511.3,43.5 L513.7,42.2 L509.8,41.2 L504.6,38.3 L502.6,35.6 L509.8,34.4 L511.2,35.6 L515,35.6 L516,34.4 L519.8,34.3 L523.2,35.5 Z M542.2,33 L547.3,34.3 L543.4,36.1 L535.8,36.5 L528,35.9 L527.5,35 L523.7,34.9 L520.8,33.3 L529,32.4 L532.8,33.2 L535.5,32.2 L542.2,33 Z M609.9,32.6 L606.4,33 L604,33.3 L603.7,33.8 L600.6,34.4 L597.7,33.6 L599.2,32.5 L593.3,32.4 L598.5,31.8 L602.5,31.7 L603,32.7 L604.6,31.8 L607,31.3 L611,32 L609.9,32.6 Z M738.7,38.3 L733,38.7 L725.6,37.7 L721.2,36.4 L719.2,33.9 L715.6,33.3 L722.5,30.9 L728.2,30.1 L733.3,31.9 L739.4,35.2 L738.7,38.3 Z M245.4,35.6 L248.5,36.7 L244.9,37.8 L240,40.3 L235.4,40.6 L229.9,40.2 L227.1,38.7 L227.1,37.5 L229.2,36.6 L224.4,36.6 L221.5,35.5 L219.8,33.9 L221.6,32.4 L223.5,31.3 L226.2,31.1 L225,30.3 L231.1,30.1 L234.5,32 L239,32.7 L243.3,33.3 L245.4,35.6 Z M294.2,23.7 L301.3,24 L307,24.5 L311.8,25.4 L311.7,26.3 L305.2,27.8 L298.8,28.5 L296.5,29.3 L302.2,29.3 L296,31.3 L291.7,32.3 L287.2,35.1 L281.7,35.7 L280,36.4 L272,36.8 L275.7,37.2 L273.9,37.8 L276,39.5 L273.5,40.7 L269.5,41.7 L268.2,43 L264.5,44.1 L264.9,44.8 L269.4,44.7 L269.5,45.5 L262.4,47.6 L255.5,46.7 L247.8,47.2 L243.8,46.8 L238.8,46.6 L238.5,44.9 L243.4,44.2 L242.1,41.7 L243.7,41.4 L250.8,42.9 L247.2,40.7 L242.9,40.1 L245,38.7 L249.7,37.9 L250.4,36.7 L246.7,35.4 L245.6,33.6 L252.8,33.7 L254.9,34.1 L259,32.8 L253.1,32.4 L243.8,32.7 L239.2,31.5 L237,30.1 L233.9,29.1 L233.3,27.9 L237.2,27.3 L240.3,27.2 L245.5,26.6 L249.4,25.3 L252.6,25.5 L255.5,26.5 L257.5,24.6 L261,24 L265.7,23.7 L273.8,23.5 L275.2,23.9 L282.8,23.3 L288.5,23.5 L294.2,23.7 Z M403.5,22.3 L420,25.1 L415.1,26.4 L405,26.5 L390.8,26.9 L392.1,27.5 L401.5,27.1 L409.4,28.3 L414.6,27.2 L416.8,28.5 L413.9,30.5 L420.6,29.2 L433.4,27.9 L441.3,28.5 L442.8,30 L432,32.4 L430.5,33.2 L422.1,33.8 L428.2,34 L425.1,36.5 L423,38.7 L423.1,42.6 L426.3,44.8 L422.1,45 L417.8,46.1 L422.7,47.9 L423.3,50.8 L420.5,51.1 L423.9,54.1 L418,54.3 L421.1,55.7 L420.2,57 L416.5,57.5 L412.8,57.5 L416.1,59.8 L416.2,61.4 L410.9,59.9 L409.6,60.9 L413.1,61.7 L416.6,63.8 L417.6,66.6 L412.9,67.3 L410.9,65.9 L407.6,64 L408.5,66.3 L405.4,68.1 L412.4,68.3 L416,68.4 L409,71.4 L401.8,74.2 L394.1,75.3 L391.1,75.4 L388.4,76.7 L384.7,80.3 L379.1,82.7 L377.2,82.9 L373.7,83.7 L369.9,84.5 L367.7,86.7 L367.6,89.1 L366.3,91.3 L362,94.1 L363.1,96.8 L361.9,99.6 L360.5,103 L356.8,103.2 L352.9,100.4 L347.6,100.4 L345.1,98.5 L343.3,95.1 L338.7,90.8 L337.4,88.6 L337,85.5 L333.4,82.3 L334.3,79.8 L332.6,78.6 L335.2,74.5 L339.2,73.3 L340.2,71.8 L340.8,69.1 L337.7,70.4 L336.3,70.9 L333.9,71.4 L330.7,70.2 L330.5,67.9 L331.6,66.1 L334,66 L339.4,66.9 L334.9,64.7 L332.5,63.6 L329.9,64 L327.7,63.2 L330.6,60 L329,58.7 L326.9,56.3 L323.7,52.7 L320.4,51.3 L320.4,49.9 L313.3,47.9 L307.7,47.6 L300.7,47.8 L294.2,48 L291.2,46.9 L286.6,44.7 L293.5,43.7 L298.8,43.5 L287.5,42.6 L281.6,41.2 L281.9,39.8 L291.9,38.2 L301.6,36.5 L302.6,35.3 L295.5,34 L297.8,32.7 L306.9,30.3 L310.8,29.9 L309.7,28.3 L315.9,27.4 L324,26.9 L332.1,26.9 L335,27.9 L342,26 L348.3,27.3 L352,27.6 L357.5,28.7 L351.2,26.9 L351.6,25.4 L360.5,23.3 L369.7,23.5 L373.1,22.2 L382.4,21.9 L403.5,22.3 Z"/>
  </g>
</svg>