<svg xmlns="http://www.w3.org/2000/svg" viewBox="0 0 950 620" fill="none">
  <rect width="950" height="620" fill="#f0f4f8"/>
  <!-- Grid lines -->
  <g stroke="#d1d5db" stroke-width="0.5" opacity="0.5">
    <line x1="0" y1="155" x2="950" y2="155"/>
    <line x1="0" y1="310" x2="950" y2="310"/>
    <line x1="0" y1="465" x2="950" y2="465"/>
    <line x1="237.5" y1="0" x2="237.5" y2="620"/>
    <line x1="475" y1="0" x2="475" y2="620"/>
    <line x1="712.5" y1="0" x2="712.5" y2="620"/>
  </g>
  <!-- Simplified continents -->
  <g fill="#94a3b8" opacity="0.6">
    <!-- North America -->
    <path d="M60,120 L120,80 L200,85 L230,110 L240,140 L220,180 L250,200 L240,240 L210,260 L200,280 L180,300 L160,290 L140,310 L120,290 L100,260 L80,240 L60,200 L50,160 Z"/>
    <!-- Central America -->
    <path d="M140,310 L160,300 L170,320 L180,340 L170,360 L150,350 L140,330 Z"/>
    <!-- South America -->
    <path d="M170,360 L200,350 L230,370 L250,400 L260,440 L250,480 L240,510 L220,540 L200,550 L180,530 L170,490 L160,450 L165,410 L170,380 Z"/>
    <!-- Europe -->
    <path d="M420,90 L460,80 L500,85 L520,100 L530,120 L520,140 L500,150 L480,155 L460,160 L440,150 L420,140 L415,120 Z"/>
    <!-- Africa -->
    <path d="M440,220 L480,210 L520,220 L540,250 L550,290 L540,340 L530,380 L510,410 L490,420 L470,410 L450,380 L440,340 L430,290 L435,250 Z"/>
    <!-- UK/Ireland -->
    <path d="M410,100 L420,95 L425,110 L415,115 Z"/>
    <!-- Scandinavia -->
    <path d="M470,50 L490,40 L510,50 L500,75 L480,80 L470,65 Z"/>
    <!-- Russia/Asia -->
    <path d="M530,60 L600,50 L680,55 L750,70 L800,80 L830,100 L810,120 L780,130 L740,135 L700,130 L650,125 L600,120 L560,110 L540,100 L530,80 Z"/>
    <!-- Middle East -->
    <path d="M540,170 L570,160 L600,170 L590,200 L570,210 L550,200 Z"/>
    <!-- India -->
    <path d="M620,180 L660,170 L680,200 L670,240 L650,270 L630,260 L620,230 L615,200 Z"/>
    <!-- Southeast Asia -->
    <path d="M690,200 L720,190 L740,210 L730,240 L710,250 L690,240 L685,220 Z"/>
    <!-- China/East Asia -->
    <path d="M680,100 L740,90 L790,100 L800,130 L780,160 L750,170 L720,165 L700,150 L680,130 Z"/>
    <!-- Japan -->
    <path d="M810,110 L820,100 L825,120 L820,140 L810,135 Z"/>
    <!-- Korea -->
    <path d="M795,120 L805,115 L808,130 L800,135 Z"/>
    <!-- Indonesia -->
    <path d="M700,310 L730,305 L760,310 L780,315 L770,325 L740,325 L710,320 Z"/>
    <!-- Australia -->
    <path d="M740,380 L800,370 L840,380 L860,410 L850,450 L820,470 L780,460 L750,440 L740,410 Z"/>
    <!-- New Zealand -->
    <path d="M870,460 L880,450 L885,470 L878,480 Z"/>
    <!-- Greenland -->
    <path d="M280,40 L330,30 L360,40 L350,70 L320,80 L290,70 Z"/>
  </g>
  <!-- Equator label -->
  <line x1="0" y1="310" x2="950" y2="310" stroke="#93c5fd" stroke-width="0.8" stroke-dasharray="8,4" opacity="0.4"/>
</svg>
